<?xml version="1.0" encoding="UTF-8"?>
<svg id="Layer_2" data-name="Layer 2" xmlns="http://www.w3.org/2000/svg" viewBox="0 0 821.5 170.32">
  <defs>
    <style>
      .cls-1 {
        fill: #fc9616;
      }

      .cls-2 {
        fill: #1b75bb;
      }

      .cls-3 {
        fill: #26a9e0;
      }

      .cls-4 {
        fill: #faaf40;
      }
    </style>
  </defs>
  <g id="Layer_1-2" data-name="Layer 1">
    <g>
      <g>
        <path class="cls-2" d="M269.36,170.32c-14.03-9.76-29.11-17.45-46.04-20.58-24.55-4.54-48.6,1.32-72.48,7.15-38.97,9.52-95.45,16.75-122.16-21.72,47.53,25.86,96.71,.52,145.55-5.77,36.21-4.66,76.73,6.99,95.13,40.91Z"/>
        <path class="cls-3" d="M0,96.68c14.03,9.76,29.11,17.45,46.04,20.58,24.55,4.54,48.6-1.32,72.48-7.15,38.97-9.52,95.45-16.75,122.16,21.72-47.53-25.86-96.71-.52-145.55,5.77-36.21,4.66-76.73-6.99-95.13-40.91Z"/>
        <g>
          <path class="cls-1" d="M210.21,71.75h0l-83.81-2.31c15.16,7.83,28.09,17.43,38.03,27.88,10.38-.66,20.77-.35,30.62,1.46,.01-1.22,0-2.44-.02-3.67-.17-6.69-1-13.2-2.44-19.47l17.62-3.88Z"/>
          <path class="cls-4" d="M126.41,69.44l-4.04-.11,3.32-.26c-7.11-3.63-14.71-6.87-22.72-9.63-35.29-12.16-70.17-12.04-94.42-1.9C3.08,69.69,.03,83.14,0,97.27c13.48,8.55,27.88,15.12,43.8,17.66,24.65,3.92,48.56-2.53,72.28-8.96,14.47-3.92,31.39-7.58,48.36-8.65-9.94-10.45-22.88-20.05-38.03-27.88Z"/>
        </g>
        <path class="cls-1" d="M102.97,59.44c8,2.76,15.6,6,22.72,9.63l63.51-4.92C175.26,25.86,138.08-1.04,95.11,.03c-14.98,.37-29.08,4.11-41.61,10.46l70.75,1.95L16.6,20.79h0l19.34,1.11c-11.7,9.54-21.13,21.73-27.39,35.64,24.24-10.14,59.12-10.26,94.42,1.9Z"/>
      </g>
      <g>
        <path d="M334.91,28.89c0,.51-.51,1.19-1.54,2.05-1.02,.86-2.25,1.75-3.69,2.65-1.44,.91-2.79,1.71-4.07,2.42s-2.17,1.18-2.67,1.42c.43-.24,.88-.62,1.36-1.14,.48-.52,.72-1.03,.72-1.54,0-.53-.4-.97-1.2-1.32-.8-.34-1.75-.62-2.85-.82-1.1-.2-2.15-.34-3.15-.44-1-.09-1.68-.14-2.05-.14-2.47,0-4.7,.35-6.68,1.06-1.98,.7-3.56,1.86-4.75,3.47-1.18,1.61-1.78,3.79-1.78,6.52,0,2.37,.58,4.25,1.74,5.66s2.65,2.55,4.47,3.41c1.82,.86,3.75,1.64,5.78,2.33,2.03,.69,3.96,1.48,5.78,2.37s3.31,2.06,4.47,3.51c1.16,1.45,1.73,3.37,1.73,5.77,0,2.85-.69,5.54-2.07,8.1s-3.23,4.88-5.55,6.98-4.89,3.92-7.72,5.47c-2.83,1.54-5.71,2.73-8.62,3.57s-5.63,1.26-8.16,1.26c-.77,0-1.81-.1-3.11-.3-1.3-.2-2.63-.53-3.99-.98-1.36-.45-2.5-1.02-3.43-1.72-.93-.69-1.4-1.54-1.4-2.55,0-.93,.47-1.88,1.42-2.85s2.1-1.89,3.47-2.77c1.37-.88,2.71-1.66,4.03-2.36,1.32-.69,2.35-1.22,3.09-1.6-.53,.45-1,1-1.42,1.64-.41,.64-.62,1.33-.62,2.07,0,1.06,.43,1.94,1.28,2.63,.85,.69,1.9,1.23,3.15,1.62,1.25,.39,2.5,.66,3.75,.82,1.25,.16,2.26,.24,3.03,.24,3.83,0,7.02-1.12,9.58-3.35,2.55-2.24,3.83-5.35,3.83-9.34,0-2.37-.59-4.3-1.76-5.8-1.17-1.5-2.68-2.75-4.53-3.75-1.85-1-3.8-1.89-5.87-2.69s-4.02-1.65-5.86-2.55c-1.85-.9-3.35-2.04-4.51-3.39s-1.74-3.1-1.74-5.23c0-.8,.08-1.58,.24-2.35,.45-2.1,1.52-4.17,3.19-6.2,1.68-2.04,3.72-3.94,6.12-5.71,2.41-1.77,4.97-3.33,7.7-4.69s5.39-2.42,8-3.19c2.61-.77,4.92-1.16,6.94-1.16,.43,0,1.17,.05,2.23,.14s2.19,.25,3.37,.48c1.18,.22,2.19,.52,3.03,.88s1.26,.82,1.26,1.38Z"/>
        <path d="M380.46,84.42c-1.44,.48-2.62,1.1-3.55,1.86s-1.83,1.51-2.69,2.25c-.86,.75-1.88,1.37-3.05,1.87-1.17,.51-2.73,.76-4.67,.76-2.47,0-3.71-1.29-3.71-3.87,0-.53,.04-1.07,.12-1.62,.08-.54,.17-1.08,.28-1.62-2.69,1.73-5.63,3.38-8.84,4.95-3.2,1.57-6.46,2.35-9.75,2.35-1.89,0-3.37-.45-4.45-1.36-1.08-.9-1.84-2.08-2.27-3.53-.44-1.45-.66-2.99-.66-4.61,0-.98,.06-1.95,.18-2.91s.27-1.9,.46-2.83l3.15-15.84c.11-.45,.19-.92,.24-1.4,.05-.48,.08-.94,.08-1.4,0-2.74-1.32-4.11-3.95-4.11-1.14,0-2.22,.24-3.23,.72,1.25-.96,2.6-1.96,4.05-3.01s2.97-1.94,4.55-2.67c1.58-.73,3.2-1.1,4.85-1.1,1.38,0,2.35,.4,2.91,1.2,.56,.8,.84,1.84,.84,3.11s-.15,2.48-.44,3.69c-.29,1.21-.56,2.41-.8,3.61-.48,2.31-.98,4.63-1.5,6.94-.52,2.31-1,4.63-1.46,6.94-.13,.77-.25,1.55-.36,2.33s-.16,1.56-.16,2.33c0,2.9,.79,4.93,2.37,6.09,1.58,1.16,3.74,1.73,6.48,1.73,1.52,0,2.95-.39,4.29-1.18,1.34-.78,2.63-1.56,3.85-2.33l4.67-23.22c.13-.77,.2-1.45,.2-2.04,0-.8-.17-1.48-.5-2.05s-.96-.86-1.89-.86c-.35,0-.7,.05-1.06,.14-.36,.09-.7,.21-1.02,.34,.9-.69,2.05-1.55,3.43-2.57s2.81-1.92,4.29-2.69,2.79-1.16,3.93-1.16c.9,0,1.56,.27,1.95,.82,.4,.54,.6,1.23,.6,2.05,0,.43-.05,.88-.16,1.36l-5.59,27.93c-.13,.67-.2,1.27-.2,1.8,0,1.36,.41,2.27,1.24,2.73,.82,.47,1.85,.7,3.07,.7,.66,0,1.32-.06,1.95-.18,.64-.12,1.28-.27,1.92-.46Z"/>
        <path d="M432.19,84.5c-1.22,.93-2.55,1.91-3.97,2.93-1.42,1.03-2.91,1.89-4.45,2.59-1.54,.7-3.13,1.06-4.75,1.06-2.74,0-4.11-1.4-4.11-4.19,0-.9,.09-1.8,.26-2.69s.35-1.78,.54-2.65c.53-2.74,1.09-5.47,1.68-8.2,.58-2.72,1.14-5.46,1.68-8.2,.11-.58,.19-1.18,.26-1.78,.07-.6,.1-1.2,.1-1.81,0-2.63-.71-4.57-2.13-5.8-1.42-1.24-3.41-1.86-5.96-1.86-1.81,0-3.31,.44-4.49,1.32-1.18,.88-2.15,2.02-2.89,3.43-.75,1.41-1.33,2.9-1.76,4.47-.43,1.57-.78,3.06-1.08,4.47l-2.79,14.04c-.05,.27-.08,.53-.08,.8,0,.77,.22,1.46,.66,2.07s1.07,.92,1.89,.92c.37,0,.73-.05,1.08-.14s.69-.21,1.04-.34c-.98,.67-2.17,1.5-3.57,2.51-1.4,1.01-2.83,1.92-4.29,2.71-1.46,.8-2.79,1.2-3.99,1.2-.93,0-1.59-.27-1.98-.82s-.58-1.24-.58-2.1c0-.43,.03-.85,.1-1.28s.14-.84,.22-1.24c.85-4.47,1.77-8.92,2.75-13.37,.98-4.44,1.9-8.9,2.75-13.37,.08-.34,.14-.69,.18-1.04,.04-.34,.06-.69,.06-1.04,0-1.36-.39-2.31-1.16-2.85-.77-.54-1.8-.82-3.07-.82-.66,0-1.33,.07-1.99,.2-.66,.13-1.3,.31-1.91,.52,1.41-.51,2.6-1.14,3.57-1.89s1.9-1.5,2.79-2.23c.89-.73,1.92-1.35,3.09-1.86s2.66-.76,4.47-.76c2.61,0,3.91,1.28,3.91,3.83,0,.61-.06,1.23-.18,1.86-.12,.63-.26,1.24-.42,1.86,1.57-1.14,3.32-2.27,5.27-3.37,1.94-1.1,3.95-2.01,6.03-2.73,2.07-.72,4.11-1.08,6.1-1.08,2.15,0,4.09,.61,5.81,1.84,1.72,1.22,2.57,3.01,2.57,5.35,0,.56-.05,1.13-.16,1.72l-4.35,21.7c-.08,.48-.15,.95-.22,1.42-.07,.46-.1,.94-.1,1.42,0,2.61,1.36,3.91,4.07,3.91,.58,0,1.17-.06,1.76-.18,.58-.12,1.17-.27,1.76-.46Z"/>
        <path d="M486.19,84.5c-1.22,.93-2.55,1.91-3.97,2.93-1.42,1.03-2.91,1.89-4.45,2.59-1.54,.7-3.13,1.06-4.75,1.06-2.74,0-4.11-1.4-4.11-4.19,0-.9,.09-1.8,.26-2.69s.35-1.78,.54-2.65c.53-2.74,1.09-5.47,1.68-8.2,.58-2.72,1.14-5.46,1.68-8.2,.11-.58,.19-1.18,.26-1.78,.07-.6,.1-1.2,.1-1.81,0-2.63-.71-4.57-2.13-5.8-1.42-1.24-3.41-1.86-5.96-1.86-1.81,0-3.31,.44-4.49,1.32-1.18,.88-2.15,2.02-2.89,3.43-.75,1.41-1.33,2.9-1.76,4.47-.43,1.57-.78,3.06-1.08,4.47l-2.79,14.04c-.05,.27-.08,.53-.08,.8,0,.77,.22,1.46,.66,2.07s1.07,.92,1.89,.92c.37,0,.73-.05,1.08-.14s.69-.21,1.04-.34c-.98,.67-2.17,1.5-3.57,2.51-1.4,1.01-2.83,1.92-4.29,2.71-1.46,.8-2.79,1.2-3.99,1.2-.93,0-1.59-.27-1.98-.82s-.58-1.24-.58-2.1c0-.43,.03-.85,.1-1.28s.14-.84,.22-1.24c.85-4.47,1.77-8.92,2.75-13.37,.98-4.44,1.9-8.9,2.75-13.37,.08-.34,.14-.69,.18-1.04,.04-.34,.06-.69,.06-1.04,0-1.36-.39-2.31-1.16-2.85-.77-.54-1.8-.82-3.07-.82-.66,0-1.33,.07-1.99,.2-.66,.13-1.3,.31-1.91,.52,1.41-.51,2.6-1.14,3.57-1.89s1.9-1.5,2.79-2.23c.89-.73,1.92-1.35,3.09-1.86s2.66-.76,4.47-.76c2.61,0,3.91,1.28,3.91,3.83,0,.61-.06,1.23-.18,1.86-.12,.63-.26,1.24-.42,1.86,1.57-1.14,3.32-2.27,5.27-3.37,1.94-1.1,3.95-2.01,6.03-2.73,2.07-.72,4.11-1.08,6.1-1.08,2.15,0,4.09,.61,5.81,1.84,1.72,1.22,2.57,3.01,2.57,5.35,0,.56-.05,1.13-.16,1.72l-4.35,21.7c-.08,.48-.15,.95-.22,1.42-.07,.46-.1,.94-.1,1.42,0,2.61,1.36,3.91,4.07,3.91,.58,0,1.17-.06,1.76-.18,.58-.12,1.17-.27,1.76-.46Z"/>
        <path d="M495.79,117.18c-.61,0-1.49-.1-2.63-.3-1.14-.2-2.18-.54-3.11-1.02s-1.4-1.14-1.4-1.99c0-.67,.46-1.4,1.38-2.19,.92-.8,2.04-1.59,3.35-2.37,1.32-.79,2.58-1.5,3.79-2.15,1.21-.65,2.09-1.18,2.65-1.58-.35,.24-.67,.58-.98,1.02-.31,.44-.46,.87-.46,1.3,0,.83,.49,1.48,1.48,1.98,.98,.49,2.07,.84,3.25,1.06,1.18,.21,2.08,.32,2.69,.32,2.47,0,4.61-.64,6.42-1.92,1.81-1.28,3.36-2.96,4.65-5.05s2.37-4.36,3.25-6.82c.88-2.46,1.6-4.89,2.17-7.28,.57-2.39,1.06-4.52,1.46-6.38-3.19,1.84-6.59,3.54-10.19,5.11-3.61,1.57-7.29,2.35-11.07,2.35-2.74,0-5.01-.61-6.8-1.84-1.79-1.22-2.69-3.31-2.69-6.26,0-1.01,.12-2.09,.36-3.23l3.15-15.92c.21-.93,.39-1.88,.54-2.83,.15-.96,.22-1.92,.22-2.87,0-1.22-.24-2.35-.72-3.37-.48-1.02-1.45-1.54-2.91-1.54-.59,0-1.16,.06-1.72,.18s-1.1,.26-1.64,.42c1.25-.9,2.61-1.87,4.07-2.91,1.46-1.04,2.99-1.92,4.59-2.65,1.6-.73,3.19-1.1,4.79-1.1,1.44,0,2.42,.43,2.95,1.28,.53,.85,.8,1.92,.8,3.19,0,1.01-.1,2.02-.3,3.03-.2,1.01-.41,2.02-.62,3.03-.45,2.21-.92,4.42-1.42,6.62s-.95,4.42-1.38,6.62c-.19,.98-.36,1.97-.52,2.95s-.24,1.97-.24,2.95c0,2.34,.53,4.1,1.58,5.27,1.05,1.17,2.43,1.95,4.15,2.36,1.72,.4,3.57,.6,5.57,.6,1.78,0,3.58-.38,5.39-1.14,1.81-.76,3.34-1.76,4.59-3.01l4.55-21.94c.08-.4,.15-.81,.2-1.22,.05-.41,.08-.82,.08-1.22,0-.83-.17-1.56-.5-2.19-.33-.64-.98-.96-1.94-.96-.64,0-1.34,.15-2.11,.44,.9-.66,2.05-1.5,3.45-2.51s2.84-1.91,4.33-2.69c1.49-.78,2.79-1.18,3.91-1.18,.69,0,1.34,.19,1.94,.58s.9,.96,.9,1.74c0,.19-.03,.37-.08,.56-.88,4.44-1.76,8.9-2.65,13.37-.89,4.47-1.79,8.92-2.69,13.37-.69,3.54-1.8,7.18-3.33,10.93s-3.43,7.35-5.69,10.79c-2.26,3.45-4.86,6.54-7.8,9.3-2.94,2.75-6.17,4.93-9.7,6.54-3.52,1.61-7.31,2.41-11.35,2.41Z"/>
        <path d="M630.01,28.45c0,.24-.54,.73-1.62,1.48-1.08,.75-2.35,1.56-3.81,2.45-1.46,.89-2.83,1.69-4.11,2.41s-2.1,1.18-2.47,1.4c.16-.13,.54-.44,1.16-.92,.61-.48,.92-.81,.92-1,0-.48-.56-.89-1.68-1.24-1.12-.34-2.44-.63-3.97-.86-1.53-.22-2.97-.4-4.33-.52-1.36-.12-2.26-.18-2.71-.18-6.28,0-11.76,1.34-16.44,4.01s-8.32,6.38-10.91,11.13c-2.59,4.75-3.89,10.26-3.89,16.54,0,4.28,.76,8.17,2.29,11.65s3.82,6.26,6.86,8.32c3.05,2.06,6.85,3.09,11.43,3.09,2.08,0,4.32-.26,6.74-.78s4.81-1.16,7.18-1.93c2.37-.77,4.51-1.54,6.42-2.31-2.63,2.15-5.67,4.07-9.1,5.74-3.43,1.68-7,2.99-10.71,3.95s-7.27,1.44-10.67,1.44c-4.36,0-8.06-.95-11.09-2.85s-5.33-4.5-6.9-7.8c-1.57-3.3-2.35-7.03-2.35-11.21,0-5.05,1.01-9.84,3.03-14.36,2.02-4.52,4.77-8.65,8.26-12.39,3.48-3.74,7.43-6.97,11.85-9.7,4.42-2.72,9.06-4.83,13.92-6.32s9.67-2.24,14.4-2.24c.43,0,1.29,.06,2.59,.18,1.3,.12,2.7,.31,4.19,.56,1.49,.25,2.78,.57,3.87,.94,1.09,.37,1.64,.81,1.64,1.32Z"/>
        <path d="M656.29,81.27c0,1.41,.37,2.41,1.12,2.99,.74,.58,1.81,.88,3.19,.88,.9,0,1.78-.09,2.63-.28-1.14,.88-2.39,1.81-3.73,2.79s-2.74,1.81-4.19,2.49c-1.45,.68-2.95,1.02-4.49,1.02-1.28,0-2.32-.23-3.13-.68-.81-.45-1.22-1.4-1.22-2.83,0-.51,.03-1,.1-1.5,.07-.49,.15-.98,.26-1.46-1.44,.93-2.94,1.92-4.51,2.95-1.57,1.04-3.19,1.92-4.87,2.63-1.68,.72-3.42,1.08-5.23,1.08-4.02,0-7.07-1.11-9.16-3.33-2.09-2.22-3.13-5.31-3.13-9.28s.86-7.96,2.59-11.75,4.08-7.2,7.04-10.23c2.97-3.03,6.33-5.44,10.09-7.22,3.76-1.78,7.67-2.67,11.71-2.67,1.94,0,3.82,.29,5.65,.88,1.82,.59,3.65,1.13,5.49,1.64l-5.87,28.89c-.11,.48-.19,.97-.26,1.48s-.1,1.01-.1,1.52Zm-4.27-22.14c-1.73-4.26-4.88-6.38-9.46-6.38-2.34,0-4.34,.77-6,2.3-1.66,1.53-3.02,3.46-4.07,5.78-1.05,2.33-1.82,4.72-2.31,7.18-.49,2.46-.74,4.61-.74,6.44,0,3.56,.87,6.28,2.61,8.16,1.74,1.87,4.42,2.81,8.04,2.81,.72,0,1.64-.22,2.77-.66,1.13-.44,2.17-1,3.13-1.67,.96-.68,1.52-1.4,1.68-2.18l4.35-21.78Z"/>
        <path d="M718.12,84.5c-1.22,.93-2.55,1.91-3.97,2.93-1.42,1.03-2.91,1.89-4.45,2.59-1.54,.7-3.13,1.06-4.75,1.06-2.74,0-4.11-1.4-4.11-4.19,0-.9,.09-1.8,.26-2.69s.35-1.78,.54-2.65c.53-2.74,1.09-5.47,1.68-8.2,.58-2.72,1.14-5.46,1.68-8.2,.11-.58,.19-1.18,.26-1.78,.07-.6,.1-1.2,.1-1.81,0-2.63-.71-4.57-2.13-5.8-1.42-1.24-3.41-1.86-5.96-1.86-1.81,0-3.31,.44-4.49,1.32-1.18,.88-2.15,2.02-2.89,3.43-.75,1.41-1.33,2.9-1.76,4.47-.43,1.57-.78,3.06-1.08,4.47l-2.79,14.04c-.05,.27-.08,.53-.08,.8,0,.77,.22,1.46,.66,2.07s1.07,.92,1.89,.92c.37,0,.73-.05,1.08-.14s.69-.21,1.04-.34c-.98,.67-2.17,1.5-3.57,2.51-1.4,1.01-2.83,1.92-4.29,2.71-1.46,.8-2.79,1.2-3.99,1.2-.93,0-1.59-.27-1.98-.82s-.58-1.24-.58-2.1c0-.43,.03-.85,.1-1.28s.14-.84,.22-1.24c.85-4.47,1.77-8.92,2.75-13.37,.98-4.44,1.9-8.9,2.75-13.37,.08-.34,.14-.69,.18-1.04,.04-.34,.06-.69,.06-1.04,0-1.36-.39-2.31-1.16-2.85-.77-.54-1.8-.82-3.07-.82-.66,0-1.33,.07-1.99,.2-.66,.13-1.3,.31-1.91,.52,1.41-.51,2.6-1.14,3.57-1.89s1.9-1.5,2.79-2.23c.89-.73,1.92-1.35,3.09-1.86s2.66-.76,4.47-.76c2.61,0,3.91,1.28,3.91,3.83,0,.61-.06,1.23-.18,1.86-.12,.63-.26,1.24-.42,1.86,1.57-1.14,3.32-2.27,5.27-3.37,1.94-1.1,3.95-2.01,6.03-2.73,2.07-.72,4.11-1.08,6.1-1.08,2.15,0,4.09,.61,5.81,1.84,1.72,1.22,2.57,3.01,2.57,5.35,0,.56-.05,1.13-.16,1.72l-4.35,21.7c-.08,.48-.15,.95-.22,1.42-.07,.46-.1,.94-.1,1.42,0,2.61,1.36,3.91,4.07,3.91,.58,0,1.17-.06,1.76-.18,.58-.12,1.17-.27,1.76-.46Z"/>
        <path d="M762.7,81.31c0,1.44,.38,2.44,1.14,2.99,.76,.56,1.82,.84,3.17,.84,.9,0,1.78-.09,2.63-.28-1.2,.85-2.47,1.77-3.81,2.75-1.34,.98-2.74,1.82-4.19,2.51-1.45,.69-2.96,1.04-4.53,1.04-1.25,0-2.27-.23-3.07-.7-.8-.46-1.2-1.39-1.2-2.77,0-.51,.04-1.01,.12-1.52s.17-1,.28-1.48c-1.49,.93-3.13,1.92-4.91,2.95-1.78,1.04-3.62,1.92-5.51,2.63-1.89,.72-3.74,1.08-5.55,1.08-4.1,0-7.31-1.15-9.64-3.45-2.33-2.3-3.49-5.51-3.49-9.63,0-3.27,.65-6.45,1.96-9.54,1.3-3.09,3.08-5.95,5.33-8.6s4.81-4.96,7.68-6.94c2.87-1.98,5.91-3.53,9.12-4.65,3.2-1.12,6.39-1.68,9.56-1.68,1.12,0,2.13,.09,3.03,.28l3.15-15.84c.16-.77,.24-1.48,.24-2.12,0-1.01-.23-1.83-.68-2.45-.45-.63-1.22-.94-2.31-.94-.66,0-1.33,.07-1.99,.2-.66,.13-1.3,.28-1.91,.44,2.95-1.97,5.94-3.92,8.98-5.87,3.03-1.94,6.18-3.64,9.45-5.11l-12.69,62.8c-.11,.5-.19,1.01-.26,1.52-.07,.51-.1,1.01-.1,1.52Zm-4.27-22.18c-.96-2.18-2.43-3.79-4.41-4.83s-4.12-1.56-6.4-1.56c-2.53,0-4.66,.6-6.4,1.82-1.74,1.21-3.15,2.79-4.23,4.73-1.08,1.94-1.86,4.04-2.35,6.3s-.74,4.43-.74,6.5c0,4.12,1.04,7.37,3.11,9.75,2.07,2.38,5.24,3.57,9.5,3.57,.72,0,1.64-.22,2.77-.66,1.13-.44,2.17-1,3.13-1.69s1.52-1.41,1.68-2.15l4.35-21.78Z"/>
        <path d="M778.21,117.18c-.61,0-1.49-.1-2.63-.3-1.14-.2-2.18-.54-3.11-1.02s-1.4-1.14-1.4-1.99c0-.67,.46-1.4,1.38-2.19,.92-.8,2.04-1.59,3.35-2.37,1.32-.79,2.58-1.5,3.79-2.15,1.21-.65,2.09-1.18,2.65-1.58-.35,.24-.67,.58-.98,1.02-.31,.44-.46,.87-.46,1.3,0,.83,.49,1.48,1.48,1.98,.98,.49,2.07,.84,3.25,1.06,1.18,.21,2.08,.32,2.69,.32,2.47,0,4.61-.64,6.42-1.92,1.81-1.28,3.36-2.96,4.65-5.05s2.37-4.36,3.25-6.82c.88-2.46,1.6-4.89,2.17-7.28,.57-2.39,1.06-4.52,1.46-6.38-3.19,1.84-6.59,3.54-10.19,5.11-3.61,1.57-7.29,2.35-11.07,2.35-2.74,0-5.01-.61-6.8-1.84-1.79-1.22-2.69-3.31-2.69-6.26,0-1.01,.12-2.09,.36-3.23l3.15-15.92c.21-.93,.39-1.88,.54-2.83,.15-.96,.22-1.92,.22-2.87,0-1.22-.24-2.35-.72-3.37-.48-1.02-1.45-1.54-2.91-1.54-.59,0-1.16,.06-1.72,.18s-1.1,.26-1.64,.42c1.25-.9,2.61-1.87,4.07-2.91,1.46-1.04,2.99-1.92,4.59-2.65,1.6-.73,3.19-1.1,4.79-1.1,1.44,0,2.42,.43,2.95,1.28,.53,.85,.8,1.92,.8,3.19,0,1.01-.1,2.02-.3,3.03-.2,1.01-.41,2.02-.62,3.03-.45,2.21-.92,4.42-1.42,6.62s-.95,4.42-1.38,6.62c-.19,.98-.36,1.97-.52,2.95s-.24,1.97-.24,2.95c0,2.34,.53,4.1,1.58,5.27,1.05,1.17,2.43,1.95,4.15,2.36,1.72,.4,3.57,.6,5.57,.6,1.78,0,3.58-.38,5.39-1.14,1.81-.76,3.34-1.76,4.59-3.01l4.55-21.94c.08-.4,.15-.81,.2-1.22,.05-.41,.08-.82,.08-1.22,0-.83-.17-1.56-.5-2.19-.33-.64-.98-.96-1.94-.96-.64,0-1.34,.15-2.11,.44,.9-.66,2.05-1.5,3.45-2.51s2.84-1.91,4.33-2.69c1.49-.78,2.79-1.18,3.91-1.18,.69,0,1.34,.19,1.94,.58s.9,.96,.9,1.74c0,.19-.03,.37-.08,.56-.88,4.44-1.76,8.9-2.65,13.37-.89,4.47-1.79,8.92-2.69,13.37-.69,3.54-1.8,7.18-3.33,10.93s-3.43,7.35-5.69,10.79c-2.26,3.45-4.86,6.54-7.8,9.3-2.94,2.75-6.17,4.93-9.7,6.54-3.52,1.61-7.31,2.41-11.35,2.41Z"/>
      </g>
      <g>
        <path d="M314.87,164.06v-16.42h-6.43v-2.33h15.51v2.33h-6.43v16.42h-2.65Z"/>
        <path d="M334.08,149.73c1.16,0,2.18,.22,3.07,.67,.88,.45,1.58,1.12,2.08,2.04,.5,.91,.75,2.06,.75,3.46v8.17h-2.57v-7.87c0-1.38-.33-2.41-1-3.11-.67-.7-1.61-1.04-2.83-1.04-.91,0-1.71,.18-2.39,.54-.68,.36-1.2,.88-1.57,1.58-.37,.7-.55,1.56-.55,2.6v7.31h-2.57v-19.88h2.57v9.51l-.51-1.02c.46-.93,1.18-1.65,2.14-2.17,.96-.52,2.09-.78,3.38-.78Z"/>
        <path d="M351.06,164.22c-1.52,0-2.85-.31-4.01-.94s-2.04-1.48-2.68-2.57c-.63-1.09-.95-2.34-.95-3.75s.31-2.66,.92-3.75,1.46-1.94,2.55-2.56c1.08-.62,2.3-.92,3.66-.92s2.59,.3,3.64,.91,1.88,1.46,2.48,2.56c.6,1.1,.9,2.38,.9,3.84,0,.11,0,.23-.01,.38,0,.14-.02,.28-.04,.4h-12.08v-1.85h10.74l-1.05,.64c.02-.91-.17-1.72-.56-2.44s-.93-1.27-1.62-1.67c-.69-.4-1.49-.6-2.4-.6s-1.69,.2-2.38,.6c-.7,.4-1.24,.96-1.63,1.69-.39,.72-.59,1.55-.59,2.48v.43c0,.95,.22,1.79,.66,2.53s1.05,1.32,1.84,1.73c.79,.41,1.69,.62,2.71,.62,.84,0,1.6-.14,2.29-.43,.69-.28,1.29-.71,1.81-1.29l1.42,1.66c-.64,.75-1.44,1.32-2.4,1.72-.96,.39-2.02,.59-3.2,.59Z"/>
        <path d="M386.1,149.73c1.14,0,2.15,.22,3.03,.67,.88,.45,1.56,1.12,2.05,2.04,.49,.91,.74,2.06,.74,3.46v8.17h-2.57v-7.87c0-1.38-.32-2.41-.96-3.11-.64-.7-1.55-1.04-2.71-1.04-.86,0-1.61,.18-2.25,.54s-1.14,.88-1.49,1.58c-.35,.7-.52,1.56-.52,2.6v7.31h-2.57v-7.87c0-1.38-.32-2.41-.95-3.11-.63-.7-1.54-1.04-2.72-1.04-.84,0-1.58,.18-2.22,.54s-1.14,.88-1.5,1.58c-.36,.7-.54,1.56-.54,2.6v7.31h-2.57v-14.2h2.46v3.78l-.4-.97c.45-.93,1.13-1.65,2.06-2.17s2.01-.78,3.24-.78c1.36,0,2.53,.33,3.51,1.01,.98,.67,1.63,1.68,1.93,3.04l-1.04-.43c.43-1.09,1.18-1.97,2.25-2.63,1.07-.66,2.32-.99,3.75-.99Z"/>
        <path d="M402.74,164.22c-1.41,0-2.67-.31-3.79-.94-1.12-.63-1.99-1.49-2.64-2.59-.64-1.1-.96-2.34-.96-3.74s.32-2.66,.96-3.74c.64-1.08,1.52-1.93,2.62-2.56s2.38-.94,3.8-.94,2.67,.31,3.79,.92c1.12,.62,1.99,1.47,2.63,2.56,.63,1.09,.95,2.34,.95,3.75s-.32,2.66-.95,3.75c-.63,1.09-1.51,1.95-2.63,2.57-1.12,.63-2.38,.94-3.79,.94Zm0-2.25c.91,0,1.73-.2,2.45-.62,.72-.41,1.29-.99,1.7-1.75,.41-.76,.62-1.64,.62-2.64s-.21-1.9-.62-2.64c-.41-.74-.98-1.32-1.7-1.73s-1.54-.62-2.45-.62-1.72,.21-2.44,.62-1.29,.99-1.71,1.73-.64,1.62-.64,2.64,.21,1.88,.64,2.64c.43,.76,1,1.35,1.71,1.75,.71,.41,1.53,.62,2.44,.62Z"/>
        <path d="M413.67,164.06v-14.2h2.46v3.86l-.24-.97c.39-.98,1.05-1.73,1.98-2.25s2.07-.78,3.43-.78v2.49c-.11-.02-.21-.03-.31-.03h-.28c-1.38,0-2.46,.41-3.27,1.23s-1.21,2.01-1.21,3.56v7.07h-2.57Z"/>
        <path d="M430.65,164.22c-1.52,0-2.85-.31-4.01-.94s-2.04-1.48-2.68-2.57c-.63-1.09-.95-2.34-.95-3.75s.31-2.66,.92-3.75,1.46-1.94,2.55-2.56c1.08-.62,2.3-.92,3.66-.92s2.59,.3,3.64,.91,1.88,1.46,2.48,2.56c.6,1.1,.9,2.38,.9,3.84,0,.11,0,.23-.01,.38,0,.14-.02,.28-.04,.4h-12.08v-1.85h10.74l-1.05,.64c.02-.91-.17-1.72-.56-2.44s-.93-1.27-1.62-1.67c-.69-.4-1.49-.6-2.4-.6s-1.69,.2-2.38,.6c-.7,.4-1.24,.96-1.63,1.69-.39,.72-.59,1.55-.59,2.48v.43c0,.95,.22,1.79,.66,2.53s1.05,1.32,1.84,1.73c.79,.41,1.69,.62,2.71,.62,.84,0,1.6-.14,2.29-.43,.69-.28,1.29-.71,1.81-1.29l1.42,1.66c-.64,.75-1.44,1.32-2.4,1.72-.96,.39-2.02,.59-3.2,.59Z"/>
        <path d="M448.55,169.42c-.68,0-1.34-.11-1.98-.33-.64-.22-1.2-.55-1.66-.98l1.1-1.93c.36,.34,.75,.6,1.18,.78,.43,.18,.88,.27,1.37,.27,.63,0,1.14-.16,1.55-.48,.41-.32,.79-.89,1.15-1.72l.88-1.95,.27-.32,5.57-12.88h2.52l-6.88,15.62c-.41,1-.87,1.79-1.38,2.36s-1.07,.98-1.67,1.22c-.61,.24-1.28,.36-2.01,.36Zm3.38-4.9l-6.48-14.65h2.68l5.52,12.64-1.71,2.01Z"/>
        <path d="M468.58,164.22c-1.41,0-2.67-.31-3.79-.94-1.12-.63-1.99-1.49-2.64-2.59-.64-1.1-.96-2.34-.96-3.74s.32-2.66,.96-3.74c.64-1.08,1.52-1.93,2.62-2.56s2.38-.94,3.8-.94,2.67,.31,3.79,.92c1.12,.62,1.99,1.47,2.63,2.56,.63,1.09,.95,2.34,.95,3.75s-.32,2.66-.95,3.75c-.63,1.09-1.51,1.95-2.63,2.57-1.12,.63-2.38,.94-3.79,.94Zm0-2.25c.91,0,1.73-.2,2.45-.62,.72-.41,1.29-.99,1.7-1.75,.41-.76,.62-1.64,.62-2.64s-.21-1.9-.62-2.64c-.41-.74-.98-1.32-1.7-1.73s-1.54-.62-2.45-.62-1.72,.21-2.44,.62-1.29,.99-1.71,1.73-.64,1.62-.64,2.64,.21,1.88,.64,2.64c.43,.76,1,1.35,1.71,1.75,.71,.41,1.53,.62,2.44,.62Z"/>
        <path d="M485.49,164.22c-1.21,0-2.28-.22-3.2-.67-.92-.45-1.63-1.13-2.14-2.05s-.76-2.08-.76-3.47v-8.17h2.57v7.87c0,1.39,.34,2.44,1,3.14,.67,.7,1.61,1.04,2.83,1.04,.89,0,1.67-.18,2.33-.55s1.17-.9,1.53-1.61c.36-.7,.54-1.56,.54-2.56v-7.34h2.57v14.2h-2.44v-3.83l.4,1.02c-.46,.95-1.16,1.68-2.09,2.2s-1.97,.78-3.13,.78Z"/>
        <path d="M512.44,149.73c1.16,0,2.18,.22,3.07,.67,.88,.45,1.58,1.12,2.08,2.04,.5,.91,.75,2.06,.75,3.46v8.17h-2.57v-7.87c0-1.38-.33-2.41-1-3.11-.67-.7-1.61-1.04-2.83-1.04-.91,0-1.71,.18-2.39,.54-.68,.36-1.2,.88-1.57,1.58-.37,.7-.55,1.56-.55,2.6v7.31h-2.57v-19.88h2.57v9.51l-.51-1.02c.46-.93,1.18-1.65,2.14-2.17,.96-.52,2.09-.78,3.38-.78Z"/>
        <path d="M527.25,164.22c-1.05,0-1.98-.18-2.77-.53s-1.41-.85-1.84-1.49c-.43-.63-.64-1.35-.64-2.16s.18-1.46,.55-2.09c.37-.63,.96-1.12,1.79-1.5,.83-.37,1.95-.56,3.36-.56h4.5v1.85h-4.39c-1.28,0-2.15,.21-2.6,.64-.45,.43-.67,.95-.67,1.55,0,.7,.28,1.25,.83,1.67,.55,.42,1.32,.63,2.3,.63s1.81-.21,2.53-.64c.72-.43,1.25-1.05,1.57-1.87l.51,1.77c-.34,.84-.94,1.5-1.79,2s-1.94,.74-3.24,.74Zm4.66-.16v-3l-.13-.56v-5.12c0-1.09-.32-1.93-.95-2.53-.63-.6-1.59-.9-2.85-.9-.84,0-1.66,.14-2.46,.41s-1.48,.65-2.04,1.11l-1.07-1.93c.73-.59,1.61-1.04,2.64-1.35s2.1-.47,3.23-.47c1.95,0,3.45,.47,4.5,1.42,1.05,.95,1.58,2.39,1.58,4.34v8.57h-2.44Z"/>
        <path d="M542.58,164.06l-6.22-14.2h2.68l5.52,12.86h-1.29l5.63-12.86h2.52l-6.22,14.2h-2.63Z"/>
        <path d="M559.75,164.22c-1.52,0-2.85-.31-4.01-.94s-2.04-1.48-2.68-2.57c-.63-1.09-.95-2.34-.95-3.75s.31-2.66,.92-3.75,1.46-1.94,2.55-2.56c1.08-.62,2.3-.92,3.66-.92s2.59,.3,3.64,.91,1.88,1.46,2.48,2.56c.6,1.1,.9,2.38,.9,3.84,0,.11,0,.23-.01,.38,0,.14-.02,.28-.04,.4h-12.08v-1.85h10.74l-1.05,.64c.02-.91-.17-1.72-.56-2.44s-.93-1.27-1.62-1.67c-.69-.4-1.49-.6-2.4-.6s-1.69,.2-2.38,.6c-.7,.4-1.24,.96-1.63,1.69-.39,.72-.59,1.55-.59,2.48v.43c0,.95,.22,1.79,.66,2.53s1.05,1.32,1.84,1.73c.79,.41,1.69,.62,2.71,.62,.84,0,1.6-.14,2.29-.43,.69-.28,1.29-.71,1.81-1.29l1.42,1.66c-.64,.75-1.44,1.32-2.4,1.72-.96,.39-2.02,.59-3.2,.59Z"/>
        <path d="M574.99,151.98v-2.12h9.06v2.12h-9.06Zm6.91,12.24c-1.43,0-2.54-.38-3.32-1.15-.79-.77-1.18-1.87-1.18-3.29v-13.02h2.57v12.91c0,.77,.19,1.36,.58,1.77,.38,.41,.93,.62,1.65,.62,.8,0,1.47-.22,2.01-.67l.8,1.85c-.39,.34-.86,.59-1.41,.75s-1.11,.24-1.7,.24Z"/>
        <path d="M595.7,149.73c1.16,0,2.18,.22,3.07,.67,.88,.45,1.58,1.12,2.08,2.04,.5,.91,.75,2.06,.75,3.46v8.17h-2.57v-7.87c0-1.38-.33-2.41-1-3.11-.67-.7-1.61-1.04-2.83-1.04-.91,0-1.71,.18-2.39,.54-.68,.36-1.2,.88-1.57,1.58-.37,.7-.55,1.56-.55,2.6v7.31h-2.57v-19.88h2.57v9.51l-.51-1.02c.46-.93,1.18-1.65,2.14-2.17,.96-.52,2.09-.78,3.38-.78Z"/>
        <path d="M612.68,164.22c-1.52,0-2.85-.31-4.01-.94s-2.04-1.48-2.68-2.57c-.63-1.09-.95-2.34-.95-3.75s.31-2.66,.92-3.75,1.46-1.94,2.55-2.56c1.08-.62,2.3-.92,3.66-.92s2.59,.3,3.64,.91,1.88,1.46,2.48,2.56c.6,1.1,.9,2.38,.9,3.84,0,.11,0,.23-.01,.38,0,.14-.02,.28-.04,.4h-12.08v-1.85h10.74l-1.05,.64c.02-.91-.17-1.72-.56-2.44s-.93-1.27-1.62-1.67c-.69-.4-1.49-.6-2.4-.6s-1.69,.2-2.38,.6c-.7,.4-1.24,.96-1.63,1.69-.39,.72-.59,1.55-.59,2.48v.43c0,.95,.22,1.79,.66,2.53s1.05,1.32,1.84,1.73c.79,.41,1.69,.62,2.71,.62,.84,0,1.6-.14,2.29-.43,.69-.28,1.29-.71,1.81-1.29l1.42,1.66c-.64,.75-1.44,1.32-2.4,1.72-.96,.39-2.02,.59-3.2,.59Z"/>
        <path d="M634.03,164.22c-1.18,0-2.3-.16-3.36-.48-1.06-.32-1.9-.71-2.5-1.18l1.07-2.04c.61,.41,1.36,.76,2.25,1.04,.89,.29,1.8,.43,2.73,.43,1.2,0,2.06-.17,2.59-.51,.53-.34,.79-.81,.79-1.42,0-.45-.16-.79-.48-1.04-.32-.25-.75-.44-1.27-.56-.53-.13-1.11-.24-1.76-.33-.64-.1-1.29-.22-1.93-.38-.64-.15-1.23-.37-1.77-.64-.54-.28-.96-.66-1.29-1.15-.32-.49-.48-1.15-.48-1.97s.24-1.61,.72-2.25c.48-.64,1.17-1.14,2.05-1.49,.88-.35,1.93-.52,3.15-.52,.93,0,1.87,.11,2.83,.33s1.74,.54,2.34,.95l-1.1,2.04c-.64-.43-1.31-.72-2.01-.88s-1.39-.24-2.09-.24c-1.12,0-1.97,.18-2.52,.55-.55,.37-.83,.84-.83,1.41,0,.48,.17,.85,.5,1.11,.33,.26,.76,.46,1.29,.6s1.11,.26,1.75,.36c.64,.1,1.29,.22,1.93,.38,.64,.15,1.23,.36,1.75,.63,.53,.27,.96,.64,1.29,1.12s.5,1.12,.5,1.93c0,.86-.25,1.6-.75,2.22-.5,.63-1.21,1.11-2.12,1.46-.91,.35-2,.52-3.27,.52Z"/>
        <path d="M649.36,164.22c-1.21,0-2.28-.22-3.2-.67-.92-.45-1.63-1.13-2.14-2.05s-.76-2.08-.76-3.47v-8.17h2.57v7.87c0,1.39,.34,2.44,1,3.14,.67,.7,1.61,1.04,2.83,1.04,.89,0,1.67-.18,2.33-.55s1.17-.9,1.53-1.61c.36-.7,.54-1.56,.54-2.56v-7.34h2.57v14.2h-2.44v-3.83l.4,1.02c-.46,.95-1.16,1.68-2.09,2.2s-1.97,.78-3.13,.78Z"/>
        <path d="M669.1,149.73c1.16,0,2.18,.22,3.07,.67,.88,.45,1.58,1.12,2.08,2.04,.5,.91,.75,2.06,.75,3.46v8.17h-2.57v-7.87c0-1.38-.33-2.41-1-3.11-.67-.7-1.61-1.04-2.83-1.04-.91,0-1.71,.18-2.39,.54-.68,.36-1.2,.88-1.57,1.58-.37,.7-.55,1.56-.55,2.6v7.31h-2.57v-14.2h2.46v3.83l-.4-1.02c.46-.93,1.18-1.65,2.14-2.17,.96-.52,2.09-.78,3.38-.78Z"/>
        <path d="M687.34,149.73c1.16,0,2.18,.22,3.07,.67,.88,.45,1.58,1.12,2.08,2.04,.5,.91,.75,2.06,.75,3.46v8.17h-2.57v-7.87c0-1.38-.33-2.41-1-3.11-.67-.7-1.61-1.04-2.83-1.04-.91,0-1.71,.18-2.39,.54-.68,.36-1.2,.88-1.57,1.58-.37,.7-.55,1.56-.55,2.6v7.31h-2.57v-14.2h2.46v3.83l-.4-1.02c.46-.93,1.18-1.65,2.14-2.17,.96-.52,2.09-.78,3.38-.78Z"/>
        <path d="M698.35,169.42c-.68,0-1.34-.11-1.98-.33-.64-.22-1.2-.55-1.66-.98l1.1-1.93c.36,.34,.75,.6,1.18,.78,.43,.18,.88,.27,1.37,.27,.63,0,1.14-.16,1.55-.48,.41-.32,.79-.89,1.15-1.72l.88-1.95,.27-.32,5.57-12.88h2.52l-6.88,15.62c-.41,1-.87,1.79-1.38,2.36s-1.07,.98-1.67,1.22c-.61,.24-1.28,.36-2.01,.36Zm3.38-4.9l-6.48-14.65h2.68l5.52,12.64-1.71,2.01Z"/>
        <path d="M721.2,147.13c-.5,0-.92-.16-1.25-.48-.33-.32-.5-.71-.5-1.18s.17-.88,.5-1.21c.33-.32,.75-.48,1.25-.48s.92,.15,1.25,.47c.33,.31,.5,.7,.5,1.16s-.16,.89-.48,1.22c-.32,.33-.74,.5-1.26,.5Zm-1.29,16.93v-14.2h2.57v14.2h-2.57Z"/>
        <path d="M725.36,151.98v-2.12h9.06v2.12h-9.06Zm6.91,12.24c-1.43,0-2.54-.38-3.32-1.15-.79-.77-1.18-1.87-1.18-3.29v-13.02h2.57v12.91c0,.77,.19,1.36,.58,1.77,.38,.41,.93,.62,1.65,.62,.8,0,1.47-.22,2.01-.67l.8,1.85c-.39,.34-.86,.59-1.41,.75s-1.11,.24-1.7,.24Z"/>
        <path d="M748.69,164.06l-5.28-14.2h2.44l4.69,12.86h-1.15l4.88-12.86h2.17l4.77,12.86h-1.12l4.79-12.86h2.3l-5.3,14.2h-2.46l-4.47-11.73h.75l-4.53,11.73h-2.46Z"/>
        <path d="M773.47,164.22c-1.05,0-1.98-.18-2.77-.53s-1.41-.85-1.84-1.49c-.43-.63-.64-1.35-.64-2.16s.18-1.46,.55-2.09c.37-.63,.96-1.12,1.79-1.5,.83-.37,1.95-.56,3.36-.56h4.5v1.85h-4.39c-1.28,0-2.15,.21-2.6,.64-.45,.43-.67,.95-.67,1.55,0,.7,.28,1.25,.83,1.67,.55,.42,1.32,.63,2.3,.63s1.81-.21,2.53-.64c.72-.43,1.25-1.05,1.57-1.87l.51,1.77c-.34,.84-.94,1.5-1.79,2s-1.94,.74-3.24,.74Zm4.66-.16v-3l-.13-.56v-5.12c0-1.09-.32-1.93-.95-2.53-.63-.6-1.59-.9-2.85-.9-.84,0-1.66,.14-2.46,.41s-1.48,.65-2.04,1.11l-1.07-1.93c.73-.59,1.61-1.04,2.64-1.35s2.1-.47,3.23-.47c1.95,0,3.45,.47,4.5,1.42,1.05,.95,1.58,2.39,1.58,4.34v8.57h-2.44Z"/>
        <path d="M789.41,164.22c-1.18,0-2.3-.16-3.36-.48-1.06-.32-1.9-.71-2.5-1.18l1.07-2.04c.61,.41,1.36,.76,2.25,1.04,.89,.29,1.8,.43,2.73,.43,1.2,0,2.06-.17,2.59-.51,.53-.34,.79-.81,.79-1.42,0-.45-.16-.79-.48-1.04-.32-.25-.75-.44-1.27-.56-.53-.13-1.11-.24-1.76-.33-.64-.1-1.29-.22-1.93-.38-.64-.15-1.23-.37-1.77-.64-.54-.28-.96-.66-1.29-1.15-.32-.49-.48-1.15-.48-1.97s.24-1.61,.72-2.25c.48-.64,1.17-1.14,2.05-1.49,.88-.35,1.93-.52,3.15-.52,.93,0,1.87,.11,2.83,.33s1.74,.54,2.34,.95l-1.1,2.04c-.64-.43-1.31-.72-2.01-.88s-1.39-.24-2.09-.24c-1.12,0-1.97,.18-2.52,.55-.55,.37-.83,.84-.83,1.41,0,.48,.17,.85,.5,1.11,.33,.26,.76,.46,1.29,.6s1.11,.26,1.75,.36c.64,.1,1.29,.22,1.93,.38,.64,.15,1.23,.36,1.75,.63,.53,.27,.96,.64,1.29,1.12s.5,1.12,.5,1.93c0,.86-.25,1.6-.75,2.22-.5,.63-1.21,1.11-2.12,1.46-.91,.35-2,.52-3.27,.52Z"/>
      </g>
    </g>
  </g>
</svg>