<?xml version="1.0" encoding="UTF-8"?>
<svg id="Layer_2" data-name="Layer 2" xmlns="http://www.w3.org/2000/svg" viewBox="0 0 269.36 249.25">
  <defs>
    <style>
      .cls-1 {
        fill: #fc9616;
      }

      .cls-2 {
        fill: #1b75bb;
      }

      .cls-3 {
        fill: #26a9e0;
      }

      .cls-4 {
        fill: #faaf40;
      }
    </style>
  </defs>
  <g id="Layer_1-2" data-name="Layer 1">
    <g>
      <g>
        <path class="cls-2" d="M269.36,170.32c-14.03-9.76-29.11-17.45-46.04-20.58-24.55-4.54-48.6,1.32-72.48,7.15-38.97,9.52-95.45,16.75-122.16-21.72,47.53,25.86,96.71,.52,145.55-5.77,36.21-4.66,76.73,6.99,95.13,40.91Z"/>
        <path class="cls-3" d="M0,96.68c14.03,9.76,29.11,17.45,46.04,20.58,24.55,4.54,48.6-1.32,72.48-7.15,38.97-9.52,95.45-16.75,122.16,21.72-47.53-25.86-96.71-.52-145.55,5.77-36.21,4.66-76.73-6.99-95.13-40.91Z"/>
        <g>
          <path class="cls-1" d="M210.21,71.75h0l-83.81-2.31c15.16,7.83,28.09,17.43,38.03,27.88,10.38-.66,20.77-.35,30.62,1.46,.01-1.22,0-2.44-.02-3.67-.17-6.69-1-13.2-2.44-19.47l17.62-3.88Z"/>
          <path class="cls-4" d="M126.41,69.44l-4.04-.11,3.32-.26c-7.11-3.63-14.71-6.87-22.72-9.63-35.29-12.16-70.17-12.04-94.42-1.9C3.08,69.69,.03,83.14,0,97.27c13.48,8.55,27.88,15.12,43.8,17.66,24.65,3.92,48.56-2.53,72.28-8.96,14.47-3.92,31.39-7.58,48.36-8.65-9.94-10.45-22.88-20.05-38.03-27.88Z"/>
        </g>
        <path class="cls-1" d="M102.97,59.44c8,2.76,15.6,6,22.72,9.63l63.51-4.92C175.26,25.86,138.08-1.04,95.11,.03c-14.98,.37-29.08,4.11-41.61,10.46l70.75,1.95L16.6,20.79h0l19.34,1.11c-11.7,9.54-21.13,21.73-27.39,35.64,24.24-10.14,59.12-10.26,94.42,1.9Z"/>
      </g>
      <g>
        <path d="M30.57,182.76c0,.24-.24,.56-.73,.97-.48,.41-1.07,.83-1.75,1.25-.68,.43-1.32,.81-1.93,1.14s-1.03,.56-1.26,.67c.2-.11,.42-.29,.64-.54,.23-.25,.34-.49,.34-.73,0-.25-.19-.46-.57-.62-.38-.16-.83-.29-1.35-.39-.52-.09-1.02-.16-1.49-.21-.47-.04-.8-.07-.97-.07-1.17,0-2.22,.17-3.16,.5-.94,.33-1.69,.88-2.25,1.64-.56,.76-.84,1.79-.84,3.09,0,1.12,.27,2.01,.82,2.68s1.25,1.21,2.11,1.61c.86,.41,1.77,.78,2.74,1.1,.96,.33,1.88,.7,2.74,1.12s1.57,.97,2.11,1.66c.55,.69,.82,1.59,.82,2.73,0,1.35-.33,2.62-.98,3.83s-1.53,2.31-2.62,3.3-2.31,1.86-3.65,2.59c-1.34,.73-2.7,1.29-4.08,1.69s-2.67,.59-3.86,.59c-.36,0-.86-.05-1.47-.14-.62-.09-1.25-.25-1.89-.46-.64-.21-1.18-.48-1.62-.81-.44-.33-.66-.73-.66-1.21,0-.44,.22-.89,.67-1.35s.99-.9,1.64-1.31c.65-.42,1.28-.79,1.91-1.11,.62-.33,1.11-.58,1.46-.75-.25,.21-.48,.47-.67,.77-.2,.3-.29,.63-.29,.98,0,.5,.2,.92,.6,1.25,.4,.33,.9,.58,1.49,.76,.59,.18,1.18,.31,1.77,.39,.59,.08,1.07,.11,1.43,.11,1.81,0,3.32-.53,4.53-1.58,1.21-1.06,1.81-2.53,1.81-4.42,0-1.12-.28-2.04-.83-2.75-.55-.71-1.27-1.3-2.14-1.77-.87-.47-1.8-.9-2.77-1.27s-1.9-.78-2.77-1.21c-.88-.43-1.59-.96-2.13-1.6s-.82-1.47-.82-2.47c0-.38,.04-.75,.11-1.11,.21-.99,.72-1.97,1.51-2.94,.79-.96,1.76-1.86,2.9-2.7,1.14-.84,2.35-1.58,3.64-2.22s2.55-1.15,3.78-1.51c1.23-.37,2.33-.55,3.28-.55,.2,0,.55,.02,1.06,.07s1.04,.12,1.6,.23c.56,.11,1.04,.25,1.43,.42s.59,.39,.59,.65Z"/>
        <path d="M52.12,209.04c-.68,.23-1.24,.52-1.68,.88s-.87,.71-1.27,1.07c-.41,.35-.89,.65-1.44,.89-.55,.24-1.29,.36-2.21,.36-1.17,0-1.76-.61-1.76-1.83,0-.25,.02-.51,.06-.76,.04-.26,.08-.51,.13-.76-1.27,.82-2.66,1.6-4.18,2.34-1.52,.74-3.05,1.11-4.61,1.11-.89,0-1.6-.21-2.1-.64-.51-.43-.87-.98-1.08-1.67-.21-.69-.31-1.41-.31-2.18,0-.46,.03-.92,.08-1.38s.13-.9,.22-1.34l1.49-7.49c.05-.21,.09-.43,.11-.66,.03-.23,.04-.45,.04-.66,0-1.3-.62-1.94-1.87-1.94-.54,0-1.05,.11-1.53,.34,.59-.45,1.23-.93,1.92-1.42s1.4-.92,2.15-1.26c.75-.35,1.51-.52,2.29-.52,.65,0,1.11,.19,1.38,.57,.26,.38,.4,.87,.4,1.47s-.07,1.17-.21,1.75c-.14,.57-.26,1.14-.38,1.71-.23,1.09-.46,2.19-.71,3.28-.25,1.09-.48,2.19-.69,3.28-.06,.37-.12,.73-.17,1.1s-.08,.74-.08,1.1c0,1.37,.37,2.33,1.12,2.88,.75,.55,1.77,.82,3.07,.82,.72,0,1.39-.19,2.03-.56,.64-.37,1.24-.74,1.82-1.1l2.21-10.99c.06-.36,.09-.69,.09-.96,0-.38-.08-.7-.24-.97s-.46-.41-.9-.41c-.16,0-.33,.02-.5,.07-.17,.04-.33,.1-.48,.16,.43-.33,.97-.73,1.62-1.22s1.33-.91,2.03-1.27,1.32-.55,1.86-.55c.43,0,.74,.13,.92,.39,.19,.26,.28,.58,.28,.97,0,.2-.03,.42-.08,.64l-2.64,13.21c-.06,.32-.09,.6-.09,.85,0,.64,.19,1.07,.58,1.29,.39,.22,.87,.33,1.45,.33,.31,0,.62-.03,.92-.08,.3-.06,.6-.13,.91-.22Z"/>
        <path d="M76.59,209.08c-.58,.44-1.21,.9-1.88,1.39-.67,.49-1.38,.89-2.1,1.23-.73,.33-1.48,.5-2.25,.5-1.3,0-1.94-.66-1.94-1.98,0-.43,.04-.85,.12-1.27s.17-.84,.25-1.26c.25-1.3,.52-2.59,.79-3.88,.28-1.29,.54-2.58,.79-3.88,.05-.28,.09-.56,.12-.84,.03-.28,.05-.57,.05-.86,0-1.25-.34-2.16-1.01-2.75-.67-.59-1.61-.88-2.82-.88-.86,0-1.56,.21-2.12,.62-.56,.42-1.02,.96-1.37,1.62-.35,.67-.63,1.37-.83,2.11-.2,.74-.37,1.45-.51,2.11l-1.32,6.64c-.03,.13-.04,.25-.04,.38,0,.37,.1,.69,.31,.98s.51,.43,.9,.43c.18,0,.35-.02,.51-.07s.33-.1,.49-.16c-.47,.32-1.03,.71-1.69,1.19-.66,.48-1.34,.91-2.03,1.28-.69,.38-1.32,.57-1.89,.57-.44,0-.75-.13-.93-.39s-.27-.59-.27-.99c0-.2,.02-.4,.05-.6s.07-.4,.1-.58c.4-2.11,.84-4.22,1.3-6.32,.47-2.1,.9-4.21,1.3-6.32,.04-.16,.07-.33,.08-.49,.02-.16,.03-.33,.03-.49,0-.64-.18-1.09-.55-1.35-.37-.26-.85-.39-1.45-.39-.31,0-.63,.03-.94,.09-.31,.06-.62,.14-.91,.25,.67-.24,1.23-.54,1.69-.9s.9-.71,1.32-1.06c.42-.35,.91-.64,1.46-.88s1.26-.36,2.11-.36c1.23,0,1.85,.6,1.85,1.81,0,.29-.03,.58-.08,.88-.06,.3-.12,.59-.2,.88,.74-.54,1.57-1.07,2.49-1.6,.92-.52,1.87-.95,2.85-1.29,.98-.34,1.94-.51,2.89-.51,1.02,0,1.94,.29,2.75,.87,.81,.58,1.22,1.42,1.22,2.53,0,.26-.03,.53-.08,.81l-2.06,10.27c-.04,.23-.07,.45-.1,.67-.03,.22-.05,.44-.05,.67,0,1.23,.64,1.85,1.93,1.85,.28,0,.55-.03,.83-.08,.28-.06,.55-.13,.83-.22Z"/>
        <path d="M102.14,209.08c-.58,.44-1.21,.9-1.88,1.39-.67,.49-1.38,.89-2.1,1.23-.73,.33-1.48,.5-2.25,.5-1.3,0-1.94-.66-1.94-1.98,0-.43,.04-.85,.12-1.27s.17-.84,.25-1.26c.25-1.3,.52-2.59,.79-3.88,.28-1.29,.54-2.58,.79-3.88,.05-.28,.09-.56,.12-.84,.03-.28,.05-.57,.05-.86,0-1.25-.34-2.16-1.01-2.75-.67-.59-1.61-.88-2.82-.88-.86,0-1.56,.21-2.12,.62-.56,.42-1.02,.96-1.37,1.62-.35,.67-.63,1.37-.83,2.11-.2,.74-.37,1.45-.51,2.11l-1.32,6.64c-.03,.13-.04,.25-.04,.38,0,.37,.1,.69,.31,.98s.51,.43,.9,.43c.18,0,.35-.02,.51-.07s.33-.1,.49-.16c-.47,.32-1.03,.71-1.69,1.19-.66,.48-1.34,.91-2.03,1.28-.69,.38-1.32,.57-1.89,.57-.44,0-.75-.13-.93-.39s-.27-.59-.27-.99c0-.2,.02-.4,.05-.6s.07-.4,.1-.58c.4-2.11,.84-4.22,1.3-6.32,.47-2.1,.9-4.21,1.3-6.32,.04-.16,.07-.33,.08-.49,.02-.16,.03-.33,.03-.49,0-.64-.18-1.09-.55-1.35-.37-.26-.85-.39-1.45-.39-.31,0-.63,.03-.94,.09-.31,.06-.62,.14-.91,.25,.67-.24,1.23-.54,1.69-.9s.9-.71,1.32-1.06c.42-.35,.91-.64,1.46-.88s1.26-.36,2.11-.36c1.23,0,1.85,.6,1.85,1.81,0,.29-.03,.58-.08,.88-.06,.3-.12,.59-.2,.88,.74-.54,1.57-1.07,2.49-1.6,.92-.52,1.87-.95,2.85-1.29,.98-.34,1.94-.51,2.89-.51,1.02,0,1.94,.29,2.75,.87,.81,.58,1.22,1.42,1.22,2.53,0,.26-.03,.53-.08,.81l-2.06,10.27c-.04,.23-.07,.45-.1,.67-.03,.22-.05,.44-.05,.67,0,1.23,.64,1.85,1.93,1.85,.28,0,.55-.03,.83-.08,.28-.06,.55-.13,.83-.22Z"/>
        <path d="M106.68,224.54c-.29,0-.71-.05-1.25-.14-.54-.09-1.03-.25-1.47-.48s-.66-.54-.66-.94c0-.32,.22-.66,.65-1.04,.43-.38,.96-.75,1.59-1.12,.62-.37,1.22-.71,1.79-1.02,.57-.31,.99-.56,1.25-.75-.16,.11-.32,.27-.46,.48-.14,.21-.22,.41-.22,.61,0,.39,.23,.7,.7,.93,.47,.23,.98,.4,1.54,.5,.56,.1,.98,.15,1.27,.15,1.17,0,2.18-.3,3.04-.91,.86-.6,1.59-1.4,2.2-2.39s1.12-2.06,1.54-3.23c.42-1.16,.76-2.31,1.03-3.45,.27-1.13,.5-2.14,.69-3.02-1.51,.87-3.12,1.67-4.82,2.42-1.71,.74-3.45,1.11-5.24,1.11-1.3,0-2.37-.29-3.22-.87-.85-.58-1.27-1.57-1.27-2.96,0-.48,.06-.99,.17-1.53l1.49-7.53c.1-.44,.19-.89,.25-1.34,.07-.45,.1-.91,.1-1.36,0-.58-.11-1.11-.34-1.59-.23-.48-.69-.73-1.38-.73-.28,0-.55,.03-.81,.08s-.52,.12-.77,.2c.59-.43,1.23-.89,1.93-1.38,.69-.49,1.42-.91,2.17-1.25,.75-.35,1.51-.52,2.27-.52,.68,0,1.15,.2,1.4,.6,.25,.4,.38,.91,.38,1.51,0,.48-.05,.96-.14,1.43-.09,.48-.19,.96-.29,1.43-.21,1.04-.44,2.09-.67,3.13s-.45,2.09-.65,3.13c-.09,.47-.17,.93-.25,1.4s-.11,.93-.11,1.4c0,1.11,.25,1.94,.75,2.49,.5,.55,1.15,.92,1.96,1.11,.81,.19,1.69,.28,2.63,.28,.84,0,1.69-.18,2.55-.54,.86-.36,1.58-.83,2.17-1.42l2.15-10.38c.04-.19,.07-.38,.09-.58,.03-.19,.04-.39,.04-.58,0-.39-.08-.74-.24-1.04-.16-.3-.46-.45-.92-.45-.3,0-.64,.07-1,.21,.43-.31,.97-.71,1.63-1.19s1.34-.9,2.05-1.27c.7-.37,1.32-.56,1.85-.56,.33,0,.63,.09,.92,.27s.42,.46,.42,.82c0,.09-.01,.18-.04,.26-.42,2.1-.83,4.21-1.26,6.32-.42,2.11-.85,4.22-1.27,6.32-.33,1.67-.85,3.4-1.58,5.17s-1.62,3.48-2.69,5.11c-1.07,1.63-2.3,3.1-3.69,4.4-1.39,1.3-2.92,2.33-4.59,3.1-1.67,.76-3.46,1.14-5.37,1.14Z"/>
        <path d="M170.19,182.56c0,.11-.25,.35-.76,.7-.51,.35-1.11,.74-1.8,1.16-.69,.42-1.34,.8-1.94,1.14s-.99,.56-1.17,.66c.08-.06,.26-.21,.55-.43,.29-.23,.43-.38,.43-.47,0-.23-.26-.42-.79-.58-.53-.16-1.15-.3-1.88-.41-.72-.11-1.41-.19-2.05-.25-.64-.06-1.07-.08-1.28-.08-2.97,0-5.56,.63-7.78,1.9s-3.94,3.02-5.16,5.27c-1.23,2.25-1.84,4.85-1.84,7.82,0,2.03,.36,3.86,1.09,5.51s1.81,2.96,3.25,3.94c1.44,.98,3.24,1.46,5.41,1.46,.98,0,2.04-.12,3.19-.37s2.28-.55,3.4-.92c1.12-.37,2.13-.73,3.04-1.09-1.25,1.02-2.68,1.92-4.3,2.72-1.62,.79-3.31,1.42-5.07,1.87s-3.44,.68-5.05,.68c-2.06,0-3.81-.45-5.25-1.35s-2.52-2.13-3.27-3.69c-.74-1.56-1.11-3.33-1.11-5.3,0-2.39,.48-4.66,1.43-6.79,.96-2.14,2.26-4.09,3.91-5.86,1.65-1.77,3.52-3.3,5.61-4.59,2.09-1.29,4.29-2.29,6.59-2.99s4.57-1.06,6.81-1.06c.2,0,.61,.03,1.23,.08,.62,.06,1.28,.15,1.98,.26,.7,.12,1.31,.27,1.83,.44,.52,.18,.77,.38,.77,.62Z"/>
        <path d="M182.62,207.55c0,.67,.18,1.14,.53,1.42,.35,.28,.86,.42,1.51,.42,.43,0,.84-.04,1.25-.13-.54,.42-1.13,.86-1.77,1.32s-1.3,.86-1.98,1.18c-.69,.32-1.39,.48-2.12,.48-.6,0-1.1-.11-1.48-.32-.38-.21-.58-.66-.58-1.34,0-.24,.02-.47,.05-.71,.03-.23,.07-.46,.12-.69-.68,.44-1.39,.91-2.13,1.4-.74,.49-1.51,.91-2.3,1.25-.79,.34-1.62,.51-2.47,.51-1.9,0-3.34-.53-4.33-1.58-.99-1.05-1.48-2.51-1.48-4.39s.41-3.77,1.23-5.56,1.93-3.41,3.33-4.84c1.4-1.43,3-2.57,4.78-3.42,1.78-.84,3.63-1.26,5.54-1.26,.92,0,1.81,.14,2.67,.42,.86,.28,1.73,.54,2.6,.77l-2.77,13.67c-.05,.23-.09,.46-.12,.7s-.05,.48-.05,.72Zm-2.02-10.48c-.82-2.01-2.31-3.02-4.47-3.02-1.11,0-2.05,.36-2.84,1.09-.79,.72-1.43,1.64-1.93,2.74-.5,1.1-.86,2.23-1.09,3.4-.23,1.16-.35,2.18-.35,3.05,0,1.69,.41,2.97,1.24,3.86,.82,.89,2.09,1.33,3.8,1.33,.34,0,.78-.1,1.31-.31,.53-.21,1.03-.47,1.48-.79,.45-.32,.72-.66,.79-1.03l2.06-10.31Z"/>
        <path d="M211.87,209.08c-.58,.44-1.21,.9-1.88,1.39-.67,.49-1.38,.89-2.1,1.23-.73,.33-1.48,.5-2.25,.5-1.3,0-1.94-.66-1.94-1.98,0-.43,.04-.85,.12-1.27s.17-.84,.25-1.26c.25-1.3,.52-2.59,.79-3.88,.28-1.29,.54-2.58,.79-3.88,.05-.28,.09-.56,.12-.84,.03-.28,.05-.57,.05-.86,0-1.25-.34-2.16-1.01-2.75-.67-.59-1.61-.88-2.82-.88-.86,0-1.56,.21-2.12,.62-.56,.42-1.02,.96-1.37,1.62-.35,.67-.63,1.37-.83,2.11-.2,.74-.37,1.45-.51,2.11l-1.32,6.64c-.03,.13-.04,.25-.04,.38,0,.37,.1,.69,.31,.98s.51,.43,.9,.43c.18,0,.35-.02,.51-.07s.33-.1,.49-.16c-.47,.32-1.03,.71-1.69,1.19-.66,.48-1.34,.91-2.03,1.28-.69,.38-1.32,.57-1.89,.57-.44,0-.75-.13-.93-.39s-.27-.59-.27-.99c0-.2,.02-.4,.05-.6s.07-.4,.1-.58c.4-2.11,.84-4.22,1.3-6.32,.47-2.1,.9-4.21,1.3-6.32,.04-.16,.07-.33,.08-.49,.02-.16,.03-.33,.03-.49,0-.64-.18-1.09-.55-1.35-.37-.26-.85-.39-1.45-.39-.31,0-.63,.03-.94,.09-.31,.06-.62,.14-.91,.25,.67-.24,1.23-.54,1.69-.9s.9-.71,1.32-1.06c.42-.35,.91-.64,1.46-.88s1.26-.36,2.11-.36c1.23,0,1.85,.6,1.85,1.81,0,.29-.03,.58-.08,.88-.06,.3-.12,.59-.2,.88,.74-.54,1.57-1.07,2.49-1.6,.92-.52,1.87-.95,2.85-1.29,.98-.34,1.94-.51,2.89-.51,1.02,0,1.94,.29,2.75,.87,.81,.58,1.22,1.42,1.22,2.53,0,.26-.03,.53-.08,.81l-2.06,10.27c-.04,.23-.07,.45-.1,.67-.03,.22-.05,.44-.05,.67,0,1.23,.64,1.85,1.93,1.85,.28,0,.55-.03,.83-.08,.28-.06,.55-.13,.83-.22Z"/>
        <path d="M232.96,207.57c0,.68,.18,1.15,.54,1.42,.36,.26,.86,.4,1.5,.4,.43,0,.84-.04,1.25-.13-.57,.4-1.17,.84-1.8,1.3-.64,.47-1.3,.86-1.98,1.19-.69,.33-1.4,.49-2.14,.49-.59,0-1.08-.11-1.45-.33-.38-.22-.57-.66-.57-1.31,0-.24,.02-.48,.06-.72s.08-.47,.13-.7c-.71,.44-1.48,.91-2.32,1.4-.84,.49-1.71,.91-2.6,1.25-.89,.34-1.77,.51-2.62,.51-1.94,0-3.46-.54-4.56-1.63-1.1-1.09-1.65-2.61-1.65-4.56,0-1.55,.31-3.05,.93-4.51,.62-1.46,1.46-2.82,2.52-4.07s2.27-2.35,3.63-3.29c1.36-.94,2.8-1.67,4.31-2.2,1.52-.53,3.02-.79,4.52-.79,.53,0,1.01,.04,1.43,.13l1.49-7.49c.08-.37,.11-.7,.11-1,0-.48-.11-.87-.32-1.16-.21-.3-.58-.44-1.09-.44-.31,0-.63,.03-.94,.09-.31,.06-.62,.13-.91,.21,1.4-.93,2.81-1.86,4.25-2.78,1.43-.92,2.93-1.72,4.47-2.42l-6,29.71c-.05,.24-.09,.48-.12,.72-.03,.24-.05,.48-.05,.72Zm-2.02-10.49c-.45-1.03-1.15-1.79-2.09-2.28s-1.95-.74-3.03-.74c-1.2,0-2.21,.29-3.03,.86-.82,.57-1.49,1.32-2,2.24-.51,.92-.88,1.91-1.11,2.98s-.35,2.09-.35,3.08c0,1.95,.49,3.49,1.47,4.61,.98,1.13,2.48,1.69,4.49,1.69,.34,0,.78-.1,1.31-.31,.53-.21,1.03-.47,1.48-.8s.72-.67,.79-1.02l2.06-10.31Z"/>
        <path d="M240.3,224.54c-.29,0-.71-.05-1.25-.14-.54-.09-1.03-.25-1.47-.48s-.66-.54-.66-.94c0-.32,.22-.66,.65-1.04,.43-.38,.96-.75,1.59-1.12,.62-.37,1.22-.71,1.79-1.02,.57-.31,.99-.56,1.25-.75-.16,.11-.32,.27-.46,.48-.14,.21-.22,.41-.22,.61,0,.39,.23,.7,.7,.93,.47,.23,.98,.4,1.54,.5,.56,.1,.98,.15,1.27,.15,1.17,0,2.18-.3,3.04-.91,.86-.6,1.59-1.4,2.2-2.39s1.12-2.06,1.54-3.23c.42-1.16,.76-2.31,1.03-3.45,.27-1.13,.5-2.14,.69-3.02-1.51,.87-3.12,1.67-4.82,2.42-1.71,.74-3.45,1.11-5.24,1.11-1.3,0-2.37-.29-3.22-.87-.85-.58-1.27-1.57-1.27-2.96,0-.48,.06-.99,.17-1.53l1.49-7.53c.1-.44,.19-.89,.25-1.34,.07-.45,.1-.91,.1-1.36,0-.58-.11-1.11-.34-1.59-.23-.48-.69-.73-1.38-.73-.28,0-.55,.03-.81,.08s-.52,.12-.77,.2c.59-.43,1.23-.89,1.93-1.38,.69-.49,1.42-.91,2.17-1.25,.75-.35,1.51-.52,2.27-.52,.68,0,1.15,.2,1.4,.6,.25,.4,.38,.91,.38,1.51,0,.48-.05,.96-.14,1.43-.09,.48-.19,.96-.29,1.43-.21,1.04-.44,2.09-.67,3.13s-.45,2.09-.65,3.13c-.09,.47-.17,.93-.25,1.4s-.11,.93-.11,1.4c0,1.11,.25,1.94,.75,2.49,.5,.55,1.15,.92,1.96,1.11,.81,.19,1.69,.28,2.63,.28,.84,0,1.69-.18,2.55-.54,.86-.36,1.58-.83,2.17-1.42l2.15-10.38c.04-.19,.07-.38,.09-.58,.03-.19,.04-.39,.04-.58,0-.39-.08-.74-.24-1.04-.16-.3-.46-.45-.92-.45-.3,0-.64,.07-1,.21,.43-.31,.97-.71,1.63-1.19s1.34-.9,2.05-1.27c.7-.37,1.32-.56,1.85-.56,.33,0,.63,.09,.92,.27s.42,.46,.42,.82c0,.09-.01,.18-.04,.26-.42,2.1-.83,4.21-1.26,6.32-.42,2.11-.85,4.22-1.27,6.32-.33,1.67-.85,3.4-1.58,5.17s-1.62,3.48-2.69,5.11c-1.07,1.63-2.3,3.1-3.69,4.4-1.39,1.3-2.92,2.33-4.59,3.1-1.67,.76-3.46,1.14-5.37,1.14Z"/>
      </g>
      <g>
        <path d="M21.09,246.72v-7.77h-3.04v-1.1h7.34v1.1h-3.04v7.77h-1.25Z"/>
        <path d="M30.17,239.94c.55,0,1.03,.11,1.45,.32,.42,.21,.75,.53,.98,.96,.24,.43,.35,.98,.35,1.63v3.87h-1.22v-3.73c0-.65-.16-1.14-.48-1.47-.32-.33-.76-.49-1.34-.49-.43,0-.81,.08-1.13,.25-.32,.17-.57,.42-.74,.75-.17,.33-.26,.74-.26,1.23v3.46h-1.22v-9.4h1.22v4.5l-.24-.48c.22-.44,.56-.78,1.01-1.03,.46-.25,.99-.37,1.6-.37Z"/>
        <path d="M38.21,246.79c-.72,0-1.35-.15-1.9-.44s-.97-.7-1.27-1.22c-.3-.52-.45-1.11-.45-1.77s.15-1.26,.44-1.77,.69-.92,1.2-1.21c.51-.29,1.09-.44,1.73-.44s1.23,.14,1.72,.43,.89,.69,1.17,1.21c.28,.52,.42,1.13,.42,1.82,0,.05,0,.11,0,.18,0,.07-.01,.13-.02,.19h-5.72v-.87h5.08l-.49,.3c0-.43-.08-.82-.27-1.15s-.44-.6-.77-.79c-.33-.19-.7-.29-1.13-.29s-.8,.09-1.13,.29c-.33,.19-.59,.46-.77,.8-.19,.34-.28,.73-.28,1.17v.2c0,.45,.1,.85,.31,1.2s.5,.62,.87,.82c.37,.2,.8,.29,1.28,.29,.4,0,.76-.07,1.08-.2,.33-.13,.61-.34,.86-.61l.67,.79c-.3,.35-.68,.62-1.13,.81-.45,.19-.96,.28-1.51,.28Z"/>
        <path d="M54.79,239.94c.54,0,1.02,.11,1.43,.32,.41,.21,.74,.53,.97,.96,.23,.43,.35,.98,.35,1.63v3.87h-1.22v-3.73c0-.65-.15-1.14-.46-1.47-.3-.33-.73-.49-1.28-.49-.41,0-.76,.08-1.06,.25s-.54,.42-.7,.75c-.16,.33-.25,.74-.25,1.23v3.46h-1.22v-3.73c0-.65-.15-1.14-.45-1.47-.3-.33-.73-.49-1.29-.49-.4,0-.75,.08-1.05,.25s-.54,.42-.71,.75c-.17,.33-.25,.74-.25,1.23v3.46h-1.22v-6.72h1.17v1.79l-.19-.46c.21-.44,.54-.78,.98-1.03s.95-.37,1.53-.37c.64,0,1.2,.16,1.66,.48,.46,.32,.77,.8,.91,1.44l-.49-.2c.2-.52,.56-.93,1.06-1.24,.51-.31,1.1-.47,1.77-.47Z"/>
        <path d="M62.66,246.79c-.67,0-1.27-.15-1.79-.44-.53-.3-.94-.7-1.25-1.22-.3-.52-.46-1.11-.46-1.77s.15-1.26,.46-1.77c.3-.51,.72-.92,1.24-1.21s1.12-.44,1.8-.44,1.27,.15,1.79,.44c.53,.29,.94,.69,1.24,1.21,.3,.52,.45,1.11,.45,1.77s-.15,1.26-.45,1.77c-.3,.52-.71,.92-1.24,1.22-.53,.3-1.13,.44-1.79,.44Zm0-1.06c.43,0,.82-.1,1.16-.29,.34-.19,.61-.47,.81-.83,.19-.36,.29-.77,.29-1.25s-.1-.9-.29-1.25c-.19-.35-.46-.62-.81-.82s-.73-.29-1.16-.29-.82,.1-1.15,.29-.61,.47-.81,.82-.3,.77-.3,1.25,.1,.89,.3,1.25c.2,.36,.47,.64,.81,.83,.34,.2,.72,.29,1.15,.29Z"/>
        <path d="M67.83,246.72v-6.72h1.17v1.83l-.11-.46c.19-.46,.5-.82,.94-1.06s.98-.37,1.62-.37v1.18c-.05,0-.1-.01-.15-.01h-.13c-.65,0-1.17,.19-1.55,.58s-.57,.95-.57,1.69v3.35h-1.22Z"/>
        <path d="M75.86,246.79c-.72,0-1.35-.15-1.9-.44s-.97-.7-1.27-1.22c-.3-.52-.45-1.11-.45-1.77s.15-1.26,.44-1.77,.69-.92,1.2-1.21c.51-.29,1.09-.44,1.73-.44s1.23,.14,1.72,.43,.89,.69,1.17,1.21c.28,.52,.42,1.13,.42,1.82,0,.05,0,.11,0,.18,0,.07-.01,.13-.02,.19h-5.72v-.87h5.08l-.49,.3c0-.43-.08-.82-.27-1.15s-.44-.6-.77-.79c-.33-.19-.7-.29-1.13-.29s-.8,.09-1.13,.29c-.33,.19-.59,.46-.77,.8-.19,.34-.28,.73-.28,1.17v.2c0,.45,.1,.85,.31,1.2s.5,.62,.87,.82c.37,.2,.8,.29,1.28,.29,.4,0,.76-.07,1.08-.2,.33-.13,.61-.34,.86-.61l.67,.79c-.3,.35-.68,.62-1.13,.81-.45,.19-.96,.28-1.51,.28Z"/>
        <path d="M84.33,249.25c-.32,0-.63-.05-.94-.16-.3-.11-.57-.26-.79-.46l.52-.91c.17,.16,.35,.28,.56,.37,.2,.08,.42,.13,.65,.13,.3,0,.54-.08,.74-.23,.19-.15,.38-.42,.54-.81l.42-.92,.13-.15,2.64-6.1h1.19l-3.26,7.39c-.19,.47-.41,.84-.65,1.12s-.5,.46-.79,.58c-.29,.11-.6,.17-.95,.17Zm1.6-2.32l-3.07-6.93h1.27l2.61,5.98-.81,.95Z"/>
        <path d="M93.81,246.79c-.67,0-1.27-.15-1.79-.44-.53-.3-.94-.7-1.25-1.22-.3-.52-.46-1.11-.46-1.77s.15-1.26,.46-1.77c.3-.51,.72-.92,1.24-1.21s1.12-.44,1.8-.44,1.27,.15,1.79,.44c.53,.29,.94,.69,1.24,1.21,.3,.52,.45,1.11,.45,1.77s-.15,1.26-.45,1.77c-.3,.52-.71,.92-1.24,1.22-.53,.3-1.13,.44-1.79,.44Zm0-1.06c.43,0,.82-.1,1.16-.29,.34-.19,.61-.47,.81-.83,.19-.36,.29-.77,.29-1.25s-.1-.9-.29-1.25c-.19-.35-.46-.62-.81-.82s-.73-.29-1.16-.29-.82,.1-1.15,.29-.61,.47-.81,.82-.3,.77-.3,1.25,.1,.89,.3,1.25c.2,.36,.47,.64,.81,.83,.34,.2,.72,.29,1.15,.29Z"/>
        <path d="M101.81,246.79c-.57,0-1.08-.11-1.51-.32-.44-.21-.77-.53-1.01-.97s-.36-.98-.36-1.64v-3.87h1.22v3.73c0,.66,.16,1.15,.48,1.48,.32,.33,.76,.49,1.34,.49,.42,0,.79-.09,1.1-.26s.55-.43,.72-.76c.17-.33,.25-.74,.25-1.21v-3.47h1.22v6.72h-1.15v-1.81l.19,.48c-.22,.45-.55,.79-.99,1.04s-.93,.37-1.48,.37Z"/>
        <path d="M114.56,239.94c.55,0,1.03,.11,1.45,.32,.42,.21,.75,.53,.98,.96,.24,.43,.35,.98,.35,1.63v3.87h-1.22v-3.73c0-.65-.16-1.14-.48-1.47-.32-.33-.76-.49-1.34-.49-.43,0-.81,.08-1.13,.25-.32,.17-.57,.42-.74,.75-.17,.33-.26,.74-.26,1.23v3.46h-1.22v-9.4h1.22v4.5l-.24-.48c.22-.44,.56-.78,1.01-1.03,.46-.25,.99-.37,1.6-.37Z"/>
        <path d="M121.57,246.79c-.5,0-.94-.08-1.31-.25s-.67-.4-.87-.7c-.2-.3-.3-.64-.3-1.02s.09-.69,.26-.99c.17-.3,.46-.53,.85-.71,.39-.18,.92-.27,1.59-.27h2.13v.87h-2.08c-.61,0-1.02,.1-1.23,.3-.21,.2-.32,.45-.32,.74,0,.33,.13,.59,.39,.79,.26,.2,.63,.3,1.09,.3s.86-.1,1.2-.3c.34-.2,.59-.5,.74-.89l.24,.84c-.16,.4-.44,.71-.85,.94s-.92,.35-1.53,.35Zm2.21-.08v-1.42l-.06-.27v-2.42c0-.51-.15-.91-.45-1.2-.3-.28-.75-.42-1.35-.42-.4,0-.79,.07-1.17,.2s-.7,.31-.96,.53l-.51-.91c.35-.28,.76-.49,1.25-.64s1-.22,1.53-.22c.92,0,1.63,.22,2.13,.67,.5,.45,.75,1.13,.75,2.05v4.06h-1.15Z"/>
        <path d="M128.82,246.72l-2.94-6.72h1.27l2.61,6.08h-.61l2.66-6.08h1.19l-2.94,6.72h-1.24Z"/>
        <path d="M136.94,246.79c-.72,0-1.35-.15-1.9-.44s-.97-.7-1.27-1.22c-.3-.52-.45-1.11-.45-1.77s.15-1.26,.44-1.77,.69-.92,1.2-1.21c.51-.29,1.09-.44,1.73-.44s1.23,.14,1.72,.43,.89,.69,1.17,1.21c.28,.52,.42,1.13,.42,1.82,0,.05,0,.11,0,.18,0,.07-.01,.13-.02,.19h-5.72v-.87h5.08l-.49,.3c0-.43-.08-.82-.27-1.15s-.44-.6-.77-.79c-.33-.19-.7-.29-1.13-.29s-.8,.09-1.13,.29c-.33,.19-.59,.46-.77,.8-.19,.34-.28,.73-.28,1.17v.2c0,.45,.1,.85,.31,1.2s.5,.62,.87,.82c.37,.2,.8,.29,1.28,.29,.4,0,.76-.07,1.08-.2,.33-.13,.61-.34,.86-.61l.67,.79c-.3,.35-.68,.62-1.13,.81-.45,.19-.96,.28-1.51,.28Z"/>
        <path d="M144.15,241v-1h4.28v1h-4.28Zm3.27,5.79c-.68,0-1.2-.18-1.57-.54-.37-.36-.56-.88-.56-1.56v-6.16h1.22v6.11c0,.36,.09,.64,.27,.84,.18,.2,.44,.29,.78,.29,.38,0,.7-.11,.95-.32l.38,.88c-.19,.16-.41,.28-.67,.35s-.53,.11-.8,.11Z"/>
        <path d="M153.95,239.94c.55,0,1.03,.11,1.45,.32,.42,.21,.75,.53,.98,.96,.24,.43,.35,.98,.35,1.63v3.87h-1.22v-3.73c0-.65-.16-1.14-.48-1.47-.32-.33-.76-.49-1.34-.49-.43,0-.81,.08-1.13,.25-.32,.17-.57,.42-.74,.75-.17,.33-.26,.74-.26,1.23v3.46h-1.22v-9.4h1.22v4.5l-.24-.48c.22-.44,.56-.78,1.01-1.03,.46-.25,.99-.37,1.6-.37Z"/>
        <path d="M161.98,246.79c-.72,0-1.35-.15-1.9-.44s-.97-.7-1.27-1.22c-.3-.52-.45-1.11-.45-1.77s.15-1.26,.44-1.77,.69-.92,1.2-1.21c.51-.29,1.09-.44,1.73-.44s1.23,.14,1.72,.43,.89,.69,1.17,1.21c.28,.52,.42,1.13,.42,1.82,0,.05,0,.11,0,.18,0,.07-.01,.13-.02,.19h-5.72v-.87h5.08l-.49,.3c0-.43-.08-.82-.27-1.15s-.44-.6-.77-.79c-.33-.19-.7-.29-1.13-.29s-.8,.09-1.13,.29c-.33,.19-.59,.46-.77,.8-.19,.34-.28,.73-.28,1.17v.2c0,.45,.1,.85,.31,1.2s.5,.62,.87,.82c.37,.2,.8,.29,1.28,.29,.4,0,.76-.07,1.08-.2,.33-.13,.61-.34,.86-.61l.67,.79c-.3,.35-.68,.62-1.13,.81-.45,.19-.96,.28-1.51,.28Z"/>
        <path d="M172.09,246.79c-.56,0-1.09-.08-1.59-.23-.5-.15-.9-.34-1.19-.56l.51-.96c.29,.19,.64,.36,1.06,.49,.42,.14,.85,.2,1.29,.2,.57,0,.97-.08,1.22-.24,.25-.16,.37-.38,.37-.67,0-.21-.08-.38-.23-.49-.15-.12-.35-.21-.6-.27-.25-.06-.53-.11-.83-.16-.3-.05-.61-.11-.91-.18-.3-.07-.58-.17-.84-.3-.25-.13-.46-.31-.61-.54-.15-.23-.23-.54-.23-.93s.11-.76,.34-1.06c.23-.3,.55-.54,.97-.7,.42-.17,.91-.25,1.49-.25,.44,0,.88,.05,1.34,.16s.82,.26,1.11,.45l-.52,.96c-.3-.2-.62-.34-.95-.42s-.66-.11-.99-.11c-.53,0-.93,.09-1.19,.26-.26,.17-.39,.4-.39,.67,0,.23,.08,.4,.23,.53,.16,.12,.36,.22,.61,.29s.53,.12,.83,.17c.3,.05,.61,.11,.91,.18,.3,.07,.58,.17,.83,.3,.25,.13,.45,.3,.61,.53s.23,.53,.23,.91c0,.41-.12,.76-.35,1.05-.24,.3-.57,.53-1,.69-.43,.17-.95,.25-1.55,.25Z"/>
        <path d="M179.34,246.79c-.57,0-1.08-.11-1.51-.32-.44-.21-.77-.53-1.01-.97s-.36-.98-.36-1.64v-3.87h1.22v3.73c0,.66,.16,1.15,.48,1.48,.32,.33,.76,.49,1.34,.49,.42,0,.79-.09,1.1-.26s.55-.43,.72-.76c.17-.33,.25-.74,.25-1.21v-3.47h1.22v6.72h-1.15v-1.81l.19,.48c-.22,.45-.55,.79-.99,1.04s-.93,.37-1.48,.37Z"/>
        <path d="M188.68,239.94c.55,0,1.03,.11,1.45,.32,.42,.21,.75,.53,.98,.96,.24,.43,.35,.98,.35,1.63v3.87h-1.22v-3.73c0-.65-.16-1.14-.48-1.47-.32-.33-.76-.49-1.34-.49-.43,0-.81,.08-1.13,.25-.32,.17-.57,.42-.74,.75-.17,.33-.26,.74-.26,1.23v3.46h-1.22v-6.72h1.17v1.81l-.19-.48c.22-.44,.56-.78,1.01-1.03,.46-.25,.99-.37,1.6-.37Z"/>
        <path d="M197.31,239.94c.55,0,1.03,.11,1.45,.32,.42,.21,.75,.53,.98,.96,.24,.43,.35,.98,.35,1.63v3.87h-1.22v-3.73c0-.65-.16-1.14-.48-1.47-.32-.33-.76-.49-1.34-.49-.43,0-.81,.08-1.13,.25-.32,.17-.57,.42-.74,.75-.17,.33-.26,.74-.26,1.23v3.46h-1.22v-6.72h1.17v1.81l-.19-.48c.22-.44,.56-.78,1.01-1.03,.46-.25,.99-.37,1.6-.37Z"/>
        <path d="M202.52,249.25c-.32,0-.63-.05-.94-.16-.3-.11-.57-.26-.79-.46l.52-.91c.17,.16,.35,.28,.56,.37,.2,.08,.42,.13,.65,.13,.3,0,.54-.08,.74-.23,.19-.15,.38-.42,.54-.81l.42-.92,.13-.15,2.64-6.1h1.19l-3.26,7.39c-.19,.47-.41,.84-.65,1.12s-.5,.46-.79,.58c-.29,.11-.6,.17-.95,.17Zm1.6-2.32l-3.07-6.93h1.27l2.61,5.98-.81,.95Z"/>
        <path d="M213.33,238.71c-.24,0-.43-.08-.59-.23-.16-.15-.23-.34-.23-.56s.08-.42,.23-.57c.16-.15,.35-.23,.59-.23s.43,.07,.59,.22c.16,.15,.23,.33,.23,.55s-.08,.42-.23,.58c-.15,.16-.35,.23-.6,.23Zm-.61,8.01v-6.72h1.22v6.72h-1.22Z"/>
        <path d="M215.29,241v-1h4.28v1h-4.28Zm3.27,5.79c-.68,0-1.2-.18-1.57-.54-.37-.36-.56-.88-.56-1.56v-6.16h1.22v6.11c0,.36,.09,.64,.27,.84,.18,.2,.44,.29,.78,.29,.38,0,.7-.11,.95-.32l.38,.88c-.19,.16-.41,.28-.67,.35s-.53,.11-.8,.11Z"/>
        <path d="M226.33,246.72l-2.5-6.72h1.15l2.22,6.08h-.54l2.31-6.08h1.03l2.26,6.08h-.53l2.27-6.08h1.09l-2.51,6.72h-1.17l-2.12-5.55h.35l-2.14,5.55h-1.17Z"/>
        <path d="M238.05,246.79c-.5,0-.94-.08-1.31-.25s-.67-.4-.87-.7c-.2-.3-.3-.64-.3-1.02s.09-.69,.26-.99c.17-.3,.46-.53,.85-.71,.39-.18,.92-.27,1.59-.27h2.13v.87h-2.08c-.61,0-1.02,.1-1.23,.3-.21,.2-.32,.45-.32,.74,0,.33,.13,.59,.39,.79,.26,.2,.63,.3,1.09,.3s.86-.1,1.2-.3c.34-.2,.59-.5,.74-.89l.24,.84c-.16,.4-.44,.71-.85,.94s-.92,.35-1.53,.35Zm2.21-.08v-1.42l-.06-.27v-2.42c0-.51-.15-.91-.45-1.2-.3-.28-.75-.42-1.35-.42-.4,0-.79,.07-1.17,.2s-.7,.31-.96,.53l-.51-.91c.35-.28,.76-.49,1.25-.64s1-.22,1.53-.22c.92,0,1.63,.22,2.13,.67,.5,.45,.75,1.13,.75,2.05v4.06h-1.15Z"/>
        <path d="M245.59,246.79c-.56,0-1.09-.08-1.59-.23-.5-.15-.9-.34-1.19-.56l.51-.96c.29,.19,.64,.36,1.06,.49,.42,.14,.85,.2,1.29,.2,.57,0,.97-.08,1.22-.24,.25-.16,.37-.38,.37-.67,0-.21-.08-.38-.23-.49-.15-.12-.35-.21-.6-.27-.25-.06-.53-.11-.83-.16-.3-.05-.61-.11-.91-.18-.3-.07-.58-.17-.84-.3-.25-.13-.46-.31-.61-.54-.15-.23-.23-.54-.23-.93s.11-.76,.34-1.06c.23-.3,.55-.54,.97-.7,.42-.17,.91-.25,1.49-.25,.44,0,.88,.05,1.34,.16s.82,.26,1.11,.45l-.52,.96c-.3-.2-.62-.34-.95-.42s-.66-.11-.99-.11c-.53,0-.93,.09-1.19,.26-.26,.17-.39,.4-.39,.67,0,.23,.08,.4,.23,.53,.16,.12,.36,.22,.61,.29s.53,.12,.83,.17c.3,.05,.61,.11,.91,.18,.3,.07,.58,.17,.83,.3,.25,.13,.45,.3,.61,.53s.23,.53,.23,.91c0,.41-.12,.76-.35,1.05-.24,.3-.57,.53-1,.69-.43,.17-.95,.25-1.55,.25Z"/>
      </g>
    </g>
  </g>
</svg>