<?xml version="1.0" encoding="UTF-8"?>
<svg id="Layer_2" data-name="Layer 2" xmlns="http://www.w3.org/2000/svg" viewBox="0 0 1401.44 713.52">
  <defs>
    <style>
      .cls-1 {
        fill: #fc9616;
      }

      .cls-2 {
        fill: #1b75bb;
      }

      .cls-3 {
        fill: #26a9e0;
      }

      .cls-4 {
        fill: #faaf40;
      }
    </style>
  </defs>
  <g id="Layer_1-2" data-name="Layer 1">
    <g>
      <g>
        <path class="cls-4" d="M534.91,299.93c-40.61-33.81-87.39-47.16-139.08-39.39-34.71,5.22-65.72,20.17-90.47,45.95-31.39,32.69-47.29,71.54-46.57,117.24,.71,45.1,16.36,83.9,47.2,116.91-7.1-1.95-12-6.67-16.97-11.1-20.3-18.09-34.45-40.45-44.03-65.68-8.95-23.56-11.27-48.04-8.79-73.08,3.71-37.34,18.61-69.82,43.58-97.41,27.7-30.61,62.04-49.33,103.27-55.3,30.04-4.35,59.16-1.31,87.03,10.19,24.58,10.13,45.96,25.29,63.17,45.88,.74,.88,1.33,1.91,1.88,2.92,.29,.54,.35,1.2,.51,1.81l-.74,1.06Z"/>
        <path class="cls-4" d="M26.85,259.81c4.93-.47,8.57,2.3,12.62,3.57,27.38,8.61,54.86,16.93,81.99,26.27,28.71,9.88,57.61,19.1,86.67,27.85,3.49,1.05,6.89,2.43,10.33,3.67,8.42,3.04,12.68,11.19,9.71,18.54-3.17,7.83-12.46,11.32-20.49,7.45-14.06-6.79-27.84-14.18-42.08-20.54-33.84-15.11-66.54-32.62-100.41-47.65-11.38-5.05-22.82-9.97-33.98-15.52-1.6-.8-3.41-1.36-4.36-3.64Z"/>
        <path class="cls-4" d="M30.39,577.24c10.87-6.91,22.54-11.29,33.75-16.58,24.2-11.43,47.6-24.41,71.61-36.22,24.61-12.11,48.93-24.79,73.4-37.16,9.07-4.59,17.29-2.04,20.83,6.28,3.05,7.18-1.32,15.82-9.97,18.93-17.02,6.12-34.11,12.03-51.18,18.01-17.38,6.08-34.79,12.04-52.04,18.5-21.91,8.2-44.23,15.28-66.27,23.14-5.14,1.83-10.63,2.66-15.49,5.34-1.23,.68-2.71,1.41-4.63-.23Z"/>
        <path class="cls-4" d="M567.57,29.89c.33,7.99-2.33,14.04-4.33,20.1-7.61,23-15.86,45.78-23.37,68.81-8.91,27.31-17.22,54.82-25.99,82.18-2.07,6.47-3.86,13.05-6.84,19.23-3.79,7.88-11.08,11.61-17.58,8.76-7.9-3.46-11.34-11.76-7.6-20.03,6.03-13.33,12.22-26.6,18.92-39.6,13.71-26.61,25.23-54.26,38.82-80.91,9.37-18.38,17.59-37.27,25.98-56.09,.25-.55,.78-.98,1.99-2.44Z"/>
        <path class="cls-4" d="M249.29,31.44c8.84,12.18,14.69,25.87,20.84,39.4,8.4,18.48,19.35,35.64,27.96,54.01,13.41,28.61,29.55,55.81,43.2,84.29,2.71,5.65,3.22,11.11-.4,16.52-3.06,4.56-7.36,6.64-12.82,5.94-5.01-.65-8.52-3.54-10.67-8.01-6.13-12.75-10-26.36-14.63-39.66-8-23.03-15.7-46.16-24.39-68.96-8.09-21.23-15.23-42.81-22.73-64.27-2.23-6.38-4.25-12.84-6.36-19.26Z"/>
        <path class="cls-4" d="M0,422.16c8.28-2.07,15.61-2.48,22.79-2.64,25.46-.59,50.73-3.71,76.08-5.64,21.5-1.64,43.12-2.43,64.49-6.12,9.11-1.57,18.57-.97,27.86-1.63,4.44-.31,8.75-1.76,13.24,.13,6.16,2.59,10.59,8.94,9.47,14.18-1.5,7.02-7.7,12.18-14.63,11.92-36.24-1.36-72.47-2.71-108.7-4.21-26.75-1.11-53.49-2.44-80.24-3.64-3.15-.14-6.22-.53-10.35-2.35Z"/>
        <path class="cls-4" d="M404.78,0c3.1,6.05,3.13,12.58,3.7,18.95,2,22.52,3.52,45.08,5.38,67.61,2.03,24.69,4.19,49.36,6.37,74.04,1.12,12.74,2.47,25.46,3.57,38.21,.45,5.22-1.93,9.47-5.95,12.54-3.85,2.93-8.19,4.53-12.99,1.87-5.85-3.25-9.46-7.99-9.05-14.88,2.53-42.86,4.17-85.76,5.98-128.66,.83-19.79,1.56-39.57,2.1-59.36,.09-3.44,.6-6.88,.91-10.31Z"/>
        <path class="cls-4" d="M702.71,114.3c-1.5,5.69-5.92,9.14-9.48,13.15-20.76,23.4-40.61,47.55-60.6,71.61-18.61,22.39-37.56,44.5-56.45,66.66-3.31,3.88-6.58,8-12.58,8.05-5.32,.05-9.41-1.87-12.1-6.44-2.84-4.82-3.18-9.8-.1-14.63,1.15-1.8,2.66-3.43,4.24-4.88,18.49-17.03,36.76-34.32,55.62-50.93,29.61-26.07,57.87-53.6,87.49-79.65,1.23-1.08,2.63-1.96,3.95-2.94Z"/>
        <path class="cls-4" d="M125.71,713.52c4.56-7.52,10.8-12.82,15.96-19.01,17.68-21.19,35.59-42.2,53.35-63.32,19.27-22.9,38.45-45.88,57.74-68.77,2.89-3.43,6.05-6.71,10.93-7.33,6.35-.8,11.1,1.65,14.01,7.26,3.22,6.22,2.61,11.53-2.8,16.7-10.22,9.78-20.67,19.32-31.13,28.84-16,14.56-32.15,28.94-48.11,43.55-21.12,19.32-42.11,38.79-63.15,58.19-1.8,1.66-3.64,3.26-6.8,3.89Z"/>
        <path class="cls-4" d="M113.06,126.86c3.43,.99,5.58,3.15,7.82,5.03,28.09,23.59,56.09,47.29,84.19,70.87,19.23,16.13,38.64,32.05,57.82,48.22,4.61,3.89,9.85,7.5,10.11,14.66,.24,6.55-3.02,10.74-8.43,13.49-5.05,2.56-10.66,1.54-15.04-3.03-7.13-7.44-13.91-15.22-20.88-22.81-11.82-12.86-23.71-25.65-35.5-38.53-19.42-21.23-38.77-42.53-58.19-63.75-6.5-7.11-13.86-13.42-19.75-21.12-.66-.87-1.27-1.78-2.15-3.03Z"/>
        <path class="cls-4" d="M85.61,486.18c10.74-4.01,21.05-6.84,31.44-9.58,14.72-3.88,29.13-8.93,43.73-13.31,13.51-4.05,27.05-7.99,40.64-11.76,5.78-1.6,11.02,1.82,12.11,7.39,.76,3.87-3.63,8.93-8.57,9.75-21.58,3.59-43.11,7.6-64.77,10.59-16.12,2.22-32.15,4.77-48.1,7.96-1.95,.39-3.95,.49-6.48-1.04Z"/>
        <path class="cls-4" d="M218.57,138.87c7.8,6.86,12.29,14.56,17.89,21.33,19.83,23.98,39.58,48.02,59.24,72.14,4.79,5.88,4.44,10.73-.38,14.21-4.88,3.52-10.17,2.22-14.24-4.22-7.37-11.67-14.62-23.43-21.52-35.38-11.16-19.31-23.93-37.59-35.52-56.61-1.95-3.21-4.05-6.43-5.46-11.48Z"/>
        <path class="cls-4" d="M84.98,357.61c13.62-.29,26.35,2.25,39.18,3.8,14.66,1.78,29.34,3.73,44.06,4.47,12.01,.61,23.74,2.81,35.6,4.29,5.49,.68,7.79,4.13,7.26,9.43-.44,4.36-4.71,8.19-9.36,7.81-3.44-.29-6.84-1.25-10.21-2.08-19.81-4.87-39.6-9.88-59.43-14.66-13.37-3.23-26.83-6.12-40.22-9.28-2.36-.56-4.9-1.04-6.88-3.78Z"/>
        <path class="cls-4" d="M471.3,78.9c1.96,3.32,1.87,5.82,1.11,7.88-3.12,8.48-2.09,17.46-3.54,26.13-3.2,19.2-4.27,38.64-6.49,57.95-1.06,9.24-1.71,18.52-2.65,27.78-.23,2.3-.63,4.63-1.36,6.81-1.66,4.95-5.83,7.15-10.51,5.83-4.35-1.23-7.3-5.87-6.28-10.56,1.31-6,3.09-11.89,4.51-17.86,6.31-26.66,12.97-53.25,18.58-80.06,1.64-7.85,5.06-14.96,6.61-23.9Z"/>
        <path class="cls-4" d="M136.75,610.39c10.27-10.84,22.27-17.98,32.91-26.79,18.67-15.48,37.41-30.88,56.15-46.28,2.95-2.42,5.88-4.91,9.07-6.99,4.22-2.74,8.24-1.6,11.64,2.86,2.64,3.46,2.22,7.23-1.13,10.7-3.51,3.63-7.75,6.26-12.06,8.76-28.58,16.62-56.54,34.28-84.68,51.62-3.51,2.17-7.35,3.8-11.9,6.12Z"/>
        <path class="cls-4" d="M341.15,88.15c4.54,5.2,5.87,11.6,7.69,17.79,8.9,30.24,17.81,60.48,26.69,90.73,.75,2.55,1.43,5.12,1.41,7.83-.03,5.04-3.06,8.73-7.82,9.36-4.03,.54-9.06-3.18-9.57-7.74-2.3-20.45-6.84-40.56-9.24-61.01-1.72-14.65-4.83-29.13-7.28-43.69-.74-4.4-.5-8.94-1.87-13.28Z"/>
        <path class="cls-4" d="M596.53,131.74c-1.03,4.04-2.87,7.35-4.84,10.52-16.14,26-29.59,53.5-44.61,80.11-2.61,4.63-5.39,9.16-7.99,13.79-3.59,6.38-8.6,8.41-13.26,5.27-5.17-3.48-5.79-9.04-1.52-14.7,8.8-11.68,17.74-23.24,26.46-34.98,13.97-18.8,27.81-37.69,41.71-56.54,.96-1.3,1.74-2.84,4.06-3.48Z"/>
        <path class="cls-4" d="M129.78,232.48c10.71,4.01,19.85,9.69,29.12,15.13,24.21,14.21,49.24,26.93,73.85,40.4,1.74,.95,3.46,2.03,4.95,3.32,5.35,4.63,5.93,8.11,2.29,12.75-3.64,4.64-8.05,5.07-13.48,1.04-18.41-13.66-36.71-27.46-55.16-41.06-11.49-8.47-23.19-16.67-34.77-25.03-2.39-1.72-4.83-3.42-6.8-6.55Z"/>
      </g>
      <g>
        <path class="cls-1" d="M432.25,300.94c16.4,0,30.73,1.8,43,5.4,12.27,3.6,22.13,7.4,29.6,11.4,7.46,4,12,6.67,13.6,8l-28.8,48.2c-2.13-1.6-5.77-3.93-10.9-7-5.13-3.07-11.2-5.8-18.2-8.2s-14.3-3.6-21.9-3.6c-10.27,0-18.57,1.83-24.9,5.5-6.33,3.67-9.5,9.1-9.5,16.3,0,4.93,1.7,9.37,5.1,13.3,3.4,3.93,8.6,7.67,15.6,11.2,7,3.53,15.9,7.37,26.7,11.5,9.87,3.6,19.13,7.87,27.8,12.8,8.67,4.93,16.3,10.77,22.9,17.5,6.6,6.73,11.83,14.5,15.7,23.3,3.87,8.8,5.8,18.8,5.8,30,0,13.33-2.73,24.9-8.2,34.7-5.47,9.8-12.9,17.9-22.3,24.3-9.4,6.4-20.07,11.17-32,14.3-11.93,3.13-24.3,4.7-37.1,4.7-18.13,0-34.37-2.07-48.7-6.2-14.33-4.13-25.9-8.6-34.7-13.4-8.8-4.8-14.07-8-15.8-9.6l29.8-50.2c1.6,1.2,4.7,3.13,9.3,5.8,4.6,2.67,10.23,5.43,16.9,8.3,6.67,2.87,13.77,5.3,21.3,7.3,7.53,2,14.96,3,22.3,3,12.27,0,21.47-2.37,27.6-7.1,6.13-4.73,9.2-10.97,9.2-18.7,0-5.73-1.93-10.87-5.8-15.4-3.87-4.53-9.67-8.83-17.4-12.9-7.73-4.07-17.4-8.37-29-12.9-11.6-4.67-22.43-10.33-32.5-17-10.07-6.67-18.23-15-24.5-25-6.27-10-9.4-22.4-9.4-37.2s4.17-27.63,12.5-38.5c8.33-10.87,19.33-19.23,33-25.1,13.67-5.87,28.3-8.8,43.9-8.8Z"/>
        <path class="cls-1" d="M597.65,481.54c0,13.07,2.46,23.5,7.4,31.3,4.93,7.8,13.2,11.7,24.8,11.7s20.23-3.9,25.1-11.7c4.87-7.8,7.3-18.23,7.3-31.3v-76h60v82.4c0,17.6-3.63,32.9-10.9,45.9-7.27,13-17.77,23.04-31.5,30.1-13.73,7.07-30.4,10.6-50,10.6s-36.07-3.53-49.8-10.6c-13.73-7.07-24.2-17.1-31.4-30.1-7.2-13-10.8-28.3-10.8-45.9v-82.4h59.8v76Z"/>
        <path class="cls-1" d="M852.25,400.74c11.47,0,22.67,2.33,33.6,7,10.93,4.67,19.93,12.03,27,22.1,7.07,10.07,10.6,23.3,10.6,39.7v100.2h-61v-90.2c0-11.73-2.8-20.57-8.4-26.5-5.6-5.93-12.93-8.9-22-8.9-6,0-11.63,1.57-16.9,4.7-5.27,3.13-9.53,7.54-12.8,13.2-3.27,5.67-4.9,12.17-4.9,19.5v88.2h-60.8v-164.2h60.8v24.2c1.6-4.4,4.97-8.83,10.1-13.3,5.13-4.47,11.6-8.2,19.4-11.2s16.23-4.5,25.3-4.5Z"/>
        <path class="cls-1" d="M1051.84,400.74c11.47,0,22.67,2.33,33.6,7,10.93,4.67,19.93,12.03,27,22.1,7.07,10.07,10.6,23.3,10.6,39.7v100.2h-61v-90.2c0-11.73-2.8-20.57-8.4-26.5-5.6-5.93-12.93-8.9-22-8.9-6,0-11.63,1.57-16.9,4.7-5.27,3.13-9.53,7.54-12.8,13.2-3.27,5.67-4.9,12.17-4.9,19.5v88.2h-60.8v-164.2h60.8v24.2c1.6-4.4,4.97-8.83,10.1-13.3,5.13-4.47,11.6-8.2,19.4-11.2s16.23-4.5,25.3-4.5Z"/>
        <path class="cls-1" d="M1221.24,517.14l44.4-111.6h59.6l-112.8,247.4h-60.8l38-83.2-68.6-164.2h60.6l39.6,111.6Z"/>
        <path class="cls-3" d="M1365.04,574.54c-9.87,0-18.37-3.57-25.5-10.7-7.13-7.13-10.7-15.63-10.7-25.5s3.57-18.77,10.7-25.9,15.63-10.7,25.5-10.7,18.73,3.57,25.8,10.7c7.07,7.13,10.6,15.77,10.6,25.9s-3.53,18.37-10.6,25.5c-7.07,7.13-15.67,10.7-25.8,10.7Z"/>
      </g>
      <g>
        <path class="cls-2" d="M736.6,589.15c1.25,.66,1.98,1.65,2.2,2.97,.22,1.32-.11,2.57-.99,3.74-.66,.88-1.5,1.38-2.53,1.49-1.03,.11-2.05-.09-3.08-.61-2.42-1.47-5.02-2.62-7.81-3.46-2.79-.84-5.72-1.26-8.8-1.26-4.33,0-8.29,.73-11.88,2.2-3.59,1.47-6.71,3.57-9.35,6.32s-4.69,6-6.16,9.74c-1.47,3.74-2.2,7.85-2.2,12.32,0,4.84,.77,9.17,2.31,12.98,1.54,3.81,3.65,7.06,6.32,9.74,2.68,2.68,5.79,4.71,9.35,6.1,3.56,1.39,7.42,2.09,11.6,2.09,3.01,0,5.9-.4,8.69-1.21,2.79-.81,5.39-1.98,7.81-3.52,1.03-.51,2.07-.7,3.13-.55,1.06,.15,1.93,.66,2.59,1.54,.95,1.17,1.3,2.4,1.04,3.68-.26,1.28-.97,2.25-2.15,2.92-1.83,1.1-3.92,2.09-6.27,2.97-2.35,.88-4.79,1.58-7.31,2.09-2.53,.51-5.04,.77-7.54,.77-5.28,0-10.27-.92-14.96-2.75-4.69-1.83-8.85-4.46-12.48-7.87-3.63-3.41-6.47-7.55-8.53-12.43-2.05-4.88-3.08-10.39-3.08-16.55,0-5.65,.99-10.87,2.97-15.67,1.98-4.8,4.73-8.97,8.25-12.49,3.52-3.52,7.65-6.25,12.38-8.2,4.73-1.94,9.88-2.92,15.46-2.92,3.81,0,7.52,.5,11.11,1.49,3.59,.99,6.89,2.44,9.9,4.34Z"/>
        <path class="cls-2" d="M830.43,603.68c1.25,0,2.29,.42,3.13,1.26,.84,.84,1.27,1.89,1.27,3.13v48.51c0,1.25-.42,2.31-1.27,3.19-.84,.88-1.89,1.32-3.13,1.32-1.32,0-2.4-.44-3.25-1.32-.84-.88-1.26-1.94-1.26-3.19v-10.45l2.09-.22c0,1.69-.55,3.47-1.65,5.33-1.1,1.87-2.6,3.63-4.51,5.28-1.91,1.65-4.14,3.01-6.71,4.07-2.57,1.06-5.35,1.59-8.36,1.59-4.99,0-9.48-1.3-13.48-3.91-4-2.6-7.13-6.14-9.4-10.61-2.27-4.47-3.41-9.57-3.41-15.29s1.15-10.91,3.46-15.35c2.31-4.44,5.43-7.92,9.35-10.45,3.92-2.53,8.34-3.79,13.25-3.79,3.15,0,6.09,.51,8.8,1.54,2.71,1.03,5.08,2.42,7.09,4.18,2.02,1.76,3.58,3.7,4.68,5.83,1.1,2.13,1.65,4.25,1.65,6.38l-2.86-.66v-11.99c0-1.25,.42-2.29,1.26-3.13,.84-.84,1.93-1.26,3.25-1.26Zm-22.66,50.38c3.67,0,6.89-.95,9.68-2.86,2.79-1.91,4.99-4.49,6.6-7.75,1.61-3.26,2.42-6.95,2.42-11.05s-.81-7.66-2.42-10.89c-1.61-3.23-3.81-5.79-6.6-7.7-2.79-1.91-6.01-2.86-9.68-2.86s-6.8,.93-9.62,2.8c-2.82,1.87-5.04,4.42-6.65,7.65-1.61,3.23-2.42,6.89-2.42,11s.79,7.79,2.36,11.05c1.58,3.26,3.78,5.85,6.6,7.75,2.82,1.91,6.07,2.86,9.73,2.86Z"/>
        <path class="cls-2" d="M912.38,602.8c4.99,0,8.91,1.03,11.77,3.08,2.86,2.05,4.9,4.8,6.11,8.25,1.21,3.45,1.81,7.33,1.81,11.66v30.8c0,1.25-.42,2.31-1.26,3.19-.84,.88-1.89,1.32-3.13,1.32-1.32,0-2.38-.44-3.19-1.32-.81-.88-1.21-1.94-1.21-3.19v-30.58c0-2.79-.42-5.32-1.26-7.59-.84-2.27-2.25-4.09-4.24-5.44-1.98-1.36-4.62-2.04-7.92-2.04-3.08,0-5.9,.68-8.47,2.04-2.57,1.36-4.62,3.17-6.16,5.44-1.54,2.27-2.31,4.8-2.31,7.59v30.58c0,1.25-.42,2.31-1.27,3.19-.84,.88-1.89,1.32-3.13,1.32s-2.29-.44-3.13-1.32c-.84-.88-1.27-1.94-1.27-3.19v-47.85c0-1.32,.42-2.4,1.27-3.25s1.89-1.26,3.13-1.26c1.32,0,2.38,.42,3.19,1.26,.81,.84,1.21,1.92,1.21,3.25v7.7l-2.2,2.42c.37-1.91,1.21-3.83,2.53-5.78,1.32-1.94,2.97-3.68,4.95-5.22,1.98-1.54,4.18-2.77,6.6-3.68s4.95-1.38,7.59-1.38Z"/>
        <path class="cls-2" d="M1028.21,579.69c1.25,0,2.29,.42,3.13,1.27,.84,.84,1.27,1.92,1.27,3.24v72.38c0,1.25-.42,2.31-1.27,3.19-.84,.88-1.89,1.32-3.13,1.32-1.32,0-2.4-.44-3.25-1.32-.84-.88-1.26-1.94-1.26-3.19v-10.45l2.09-.66c0,1.69-.53,3.5-1.59,5.45-1.06,1.94-2.57,3.78-4.51,5.5-1.94,1.72-4.2,3.12-6.76,4.18-2.57,1.06-5.35,1.59-8.36,1.59-4.99,0-9.46-1.28-13.42-3.85-3.96-2.57-7.09-6.09-9.4-10.56-2.31-4.47-3.47-9.57-3.47-15.29s1.16-10.93,3.47-15.4c2.31-4.47,5.43-7.98,9.35-10.5,3.92-2.53,8.34-3.79,13.25-3.79,3.08,0,5.96,.51,8.63,1.54,2.68,1.03,5.04,2.42,7.1,4.18,2.05,1.76,3.65,3.7,4.78,5.83,1.14,2.13,1.71,4.25,1.71,6.38l-2.86-.66v-35.86c0-1.25,.42-2.31,1.26-3.19,.84-.88,1.92-1.32,3.25-1.32Zm-22.66,74.36c3.67,0,6.89-.94,9.68-2.81,2.79-1.87,4.99-4.44,6.6-7.7,1.61-3.26,2.42-6.95,2.42-11.06s-.81-7.79-2.42-11.05c-1.61-3.26-3.81-5.83-6.6-7.7-2.79-1.87-6.01-2.8-9.68-2.8s-6.8,.93-9.62,2.8c-2.82,1.87-5.04,4.44-6.66,7.7-1.61,3.26-2.42,6.95-2.42,11.05s.81,7.68,2.42,10.95c1.61,3.26,3.83,5.85,6.66,7.75,2.82,1.91,6.03,2.86,9.62,2.86Z"/>
        <path class="cls-2" d="M1124.46,603.35c1.25,0,2.29,.44,3.13,1.32,.84,.88,1.27,1.94,1.27,3.19v47.85c0,6.23-1.21,11.37-3.63,15.4-2.42,4.03-5.67,7.04-9.74,9.02-4.07,1.98-8.67,2.97-13.8,2.97-2.86,0-5.61-.29-8.25-.88-2.64-.59-4.8-1.36-6.49-2.31-1.39-.66-2.38-1.48-2.97-2.47-.59-.99-.66-2.04-.22-3.13,.51-1.32,1.27-2.24,2.25-2.75,.99-.51,2.04-.51,3.14,0,1.17,.51,2.88,1.23,5.11,2.14,2.24,.92,4.75,1.38,7.54,1.38,3.81,0,7.08-.73,9.79-2.2,2.71-1.47,4.8-3.61,6.27-6.43,1.47-2.82,2.2-6.33,2.2-10.5v-7.7l1.21,2.64c-1.1,2.35-2.64,4.36-4.62,6.05-1.98,1.69-4.27,2.99-6.88,3.91-2.6,.92-5.41,1.38-8.42,1.38-4.25,0-7.83-.9-10.73-2.7-2.9-1.8-5.08-4.29-6.54-7.48-1.47-3.19-2.2-6.84-2.2-10.95v-33.22c0-1.25,.42-2.31,1.27-3.19,.84-.88,1.89-1.32,3.13-1.32,1.32,0,2.38,.44,3.19,1.32,.81,.88,1.21,1.94,1.21,3.19v31.13c0,4.99,1.1,8.75,3.3,11.28,2.2,2.53,5.61,3.79,10.23,3.79,2.93,0,5.57-.66,7.92-1.98,2.35-1.32,4.24-3.13,5.67-5.44,1.43-2.31,2.15-4.86,2.15-7.65v-31.13c0-1.25,.42-2.31,1.26-3.19,.84-.88,1.92-1.32,3.25-1.32Z"/>
      </g>
    </g>
  </g>
</svg>